<svg width="640" height="473" viewBox="0 0 640 473" fill="none" xmlns="http://www.w3.org/2000/svg">
<path d="M575.872 439.997H533.478V440.317H575.872V439.997Z" fill="#EBEBEB"/>
<path d="M423.962 443.478H412.838V443.798H423.962V443.478Z" fill="#EBEBEB"/>
<path d="M532.198 428.118H507.635V428.438H532.198V428.118Z" fill="#EBEBEB"/>
<path d="M122.432 430.269H67.1488V430.589H122.432V430.269Z" fill="#EBEBEB"/>
<path d="M141.939 430.269H133.837V430.589H141.939V430.269Z" fill="#EBEBEB"/>
<path d="M288.192 435.67H168.282V435.99H288.192V435.67Z" fill="#EBEBEB"/>
<path d="M305.152 362.314H57.984C56.0456 362.314 54.1866 361.544 52.8159 360.173C51.4452 358.802 50.6752 356.943 50.6752 355.005V7.57439C50.6921 5.64709 51.4695 3.80447 52.8384 2.44761C54.2072 1.09076 56.0566 0.329516 57.984 0.32959H305.152C306.112 0.32959 307.062 0.518636 307.949 0.885938C308.836 1.25324 309.641 1.7916 310.32 2.47029C310.999 3.14897 311.537 3.95469 311.904 4.84144C312.272 5.72818 312.461 6.67858 312.461 7.63839V355.005C312.461 355.965 312.272 356.915 311.904 357.802C311.537 358.688 310.999 359.494 310.32 360.173C309.641 360.852 308.836 361.39 307.949 361.757C307.062 362.125 306.112 362.314 305.152 362.314ZM57.984 0.585591C56.1315 0.588974 54.3558 1.32638 53.0459 2.6363C51.736 3.94622 50.9986 5.72188 50.9952 7.57439V355.005C50.9986 356.857 51.736 358.633 53.0459 359.943C54.3558 361.253 56.1315 361.99 57.984 361.994H305.152C307.005 361.99 308.78 361.253 310.09 359.943C311.4 358.633 312.137 356.857 312.141 355.005V7.57439C312.137 5.72188 311.4 3.94622 310.09 2.6363C308.78 1.32638 307.005 0.588974 305.152 0.585591H57.984Z" fill="#EBEBEB"/>
<path d="M582.016 362.314H334.848C332.91 362.314 331.051 361.544 329.68 360.173C328.309 358.802 327.539 356.943 327.539 355.005V7.57439C327.556 5.64709 328.334 3.80447 329.702 2.44761C331.071 1.09076 332.921 0.329516 334.848 0.32959H582.016C583.954 0.32959 585.813 1.09962 587.184 2.47029C588.555 3.84095 589.325 5.69997 589.325 7.63839V355.005C589.325 356.943 588.555 358.802 587.184 360.173C585.813 361.544 583.954 362.314 582.016 362.314ZM334.848 0.585591C332.995 0.588974 331.22 1.32638 329.91 2.6363C328.6 3.94622 327.863 5.72188 327.859 7.57439V355.005C327.863 356.857 328.6 358.633 329.91 359.943C331.22 361.253 332.995 361.99 334.848 361.994H582.016C583.869 361.99 585.644 361.253 586.954 359.943C588.264 358.633 589.001 356.857 589.005 355.005V7.57439C589.001 5.72188 588.264 3.94622 586.954 2.6363C585.644 1.32638 583.869 0.588974 582.016 0.585591H334.848Z" fill="#EBEBEB"/>
<path d="M640 419.402H0V419.722H640V419.402Z" fill="#EBEBEB"/>
<path d="M517.645 46.832H483.226C472.311 46.832 463.462 55.6803 463.462 66.5952V101.014C463.462 111.929 472.311 120.778 483.226 120.778H517.645C528.56 120.778 537.408 111.929 537.408 101.014V66.5952C537.408 55.6803 528.56 46.832 517.645 46.832Z" fill="#F0F0F0"/>
<path d="M509.632 73.3535C509.632 79.6511 506.432 84.7455 500.134 84.7455C493.837 84.7455 490.637 79.6255 490.637 73.3535C490.637 67.0815 493.837 61.9487 500.134 61.9487C506.432 61.9487 509.632 67.0559 509.632 73.3535Z" fill="#FAFAFA"/>
<path d="M500.134 105.648H517.709V95.2032C517.709 89.4304 509.837 84.7456 500.134 84.7456C490.432 84.7456 482.56 89.4304 482.56 95.2032V105.648H500.134Z" fill="#FAFAFA"/>
<path d="M193.907 71.6255H169.869C162.248 71.6255 156.07 77.8033 156.07 85.4239V109.462C156.07 117.083 162.248 123.261 169.869 123.261H193.907C201.528 123.261 207.706 117.083 207.706 109.462V85.4239C207.706 77.8033 201.528 71.6255 193.907 71.6255Z" fill="#E6E6E6"/>
<path d="M180.838 100.234C181.614 99.1565 182.512 98.1728 183.514 97.3024C184.198 96.6978 184.831 96.0386 185.408 95.3312C185.803 94.8079 186.014 94.1691 186.01 93.5136C186.024 93.066 185.926 92.6219 185.724 92.2218C185.523 91.8216 185.225 91.4781 184.858 91.2224C183.952 90.6284 182.88 90.3371 181.798 90.3904C180.664 90.3636 179.542 90.6234 178.534 91.1456C177.58 91.6598 176.756 92.3869 176.128 93.2704L171.405 90.5056C172.504 88.8463 174.035 87.5185 175.834 86.6656C177.908 85.7032 180.178 85.2344 182.464 85.296C185.005 85.1761 187.521 85.842 189.67 87.2032C190.532 87.7838 191.233 88.573 191.707 89.4973C192.182 90.4217 192.414 91.451 192.384 92.4896C192.405 93.4556 192.222 94.4153 191.846 95.3056C191.536 96.0542 191.103 96.7462 190.566 97.3536C190.054 97.9168 189.402 98.5568 188.595 99.2864C187.823 99.9427 187.116 100.671 186.483 101.462C186.029 102.076 185.794 102.824 185.818 103.587H179.917C179.869 102.401 180.191 101.229 180.838 100.234ZM180.211 112.355C179.86 112.03 179.582 111.633 179.396 111.192C179.211 110.75 179.122 110.274 179.136 109.795C179.126 109.331 179.215 108.871 179.399 108.444C179.582 108.018 179.855 107.636 180.198 107.325C180.948 106.68 181.904 106.326 182.893 106.326C183.881 106.326 184.837 106.68 185.587 107.325C185.929 107.638 186.199 108.02 186.38 108.446C186.561 108.872 186.649 109.332 186.637 109.795C186.651 110.274 186.562 110.75 186.377 111.192C186.191 111.633 185.913 112.03 185.562 112.355C184.83 113.023 183.876 113.393 182.886 113.393C181.896 113.393 180.942 113.023 180.211 112.355Z" fill="#FAFAFA"/>
<path d="M514.099 248.381H532.698C535.532 248.381 538.251 249.507 540.255 251.511C542.26 253.516 543.386 256.234 543.386 259.069V277.667C543.386 280.499 542.261 283.214 540.259 285.216C538.257 287.218 535.542 288.342 532.71 288.342H514.099C511.268 288.342 508.553 287.218 506.551 285.216C504.549 283.214 503.424 280.499 503.424 277.667V259.069C503.424 256.238 504.549 253.522 506.551 251.52C508.553 249.518 511.268 248.394 514.099 248.394V248.381Z" fill="#EBEBEB"/>
<path d="M522.573 270.525C523.174 269.692 523.87 268.932 524.646 268.259C525.179 267.789 525.671 267.275 526.118 266.723C526.424 266.322 526.586 265.831 526.579 265.328C526.593 264.981 526.517 264.637 526.361 264.328C526.204 264.019 525.971 263.755 525.683 263.561C524.985 263.095 524.154 262.866 523.315 262.909C522.457 262.883 521.607 263.074 520.842 263.463C520.077 263.852 519.422 264.427 518.938 265.136L515.277 262.998C516.123 261.703 517.31 260.666 518.707 260.003C520.31 259.261 522.062 258.898 523.827 258.941C525.796 258.845 527.747 259.364 529.408 260.425C530.077 260.876 530.621 261.49 530.989 262.209C531.356 262.927 531.534 263.728 531.507 264.534C531.522 265.28 531.383 266.021 531.098 266.71C530.856 267.292 530.519 267.828 530.099 268.297C529.62 268.825 529.111 269.325 528.576 269.795C527.983 270.306 527.435 270.867 526.938 271.472C526.594 271.953 526.414 272.532 526.426 273.123H521.869C521.829 272.205 522.075 271.297 522.573 270.525ZM522.086 279.907C521.819 279.66 521.608 279.358 521.467 279.023C521.326 278.687 521.258 278.325 521.267 277.961C521.26 277.603 521.327 277.246 521.466 276.916C521.605 276.585 521.812 276.287 522.074 276.041C522.655 275.545 523.395 275.272 524.16 275.272C524.925 275.272 525.665 275.545 526.246 276.041C526.51 276.286 526.719 276.583 526.861 276.914C527.002 277.245 527.072 277.602 527.066 277.961C527.074 278.326 527.004 278.689 526.86 279.024C526.717 279.36 526.503 279.661 526.234 279.907C525.96 280.174 525.635 280.383 525.279 280.522C524.923 280.66 524.542 280.725 524.16 280.713C523.778 280.722 523.398 280.656 523.043 280.518C522.687 280.379 522.362 280.172 522.086 279.907Z" fill="#FAFAFA"/>
<path d="M149.901 149.066H125.862C118.242 149.066 112.064 155.243 112.064 162.864V186.902C112.064 194.523 118.242 200.701 125.862 200.701H149.901C157.521 200.701 163.699 194.523 163.699 186.902V162.864C163.699 155.243 157.521 149.066 149.901 149.066Z" fill="#EBEBEB"/>
<path d="M137.882 160.33C136.348 160.33 134.828 160.632 133.411 161.219C131.994 161.807 130.707 162.668 129.623 163.753C128.538 164.839 127.679 166.127 127.093 167.545C126.507 168.963 126.206 170.482 126.208 172.016C126.208 178.416 131.43 193.93 137.882 193.93C144.333 193.93 149.555 178.454 149.555 172.016C149.557 170.482 149.256 168.963 148.67 167.545C148.084 166.127 147.225 164.839 146.141 163.753C145.056 162.668 143.769 161.807 142.352 161.219C140.935 160.632 139.416 160.33 137.882 160.33ZM137.882 175.536C137.185 175.536 136.505 175.33 135.926 174.943C135.347 174.556 134.896 174.006 134.63 173.363C134.363 172.72 134.293 172.012 134.429 171.329C134.565 170.646 134.9 170.019 135.393 169.527C135.885 169.035 136.512 168.699 137.195 168.564C137.878 168.428 138.585 168.498 139.229 168.764C139.872 169.03 140.422 169.482 140.808 170.06C141.195 170.639 141.402 171.32 141.402 172.016C141.388 172.941 141.011 173.823 140.353 174.472C139.694 175.121 138.806 175.485 137.882 175.485V175.536Z" fill="#FAFAFA"/>
<path d="M143.04 245.373C143.416 243.002 143.416 240.588 143.04 238.217L139.443 237.744C139.153 236.422 138.724 235.135 138.163 233.904L140.8 231.408C139.704 229.273 138.283 227.322 136.589 225.622L133.389 227.363C132.4 226.467 131.318 225.677 130.163 225.008L130.829 221.437C128.703 220.343 126.418 219.591 124.058 219.209L122.509 222.473C121.856 222.409 121.229 222.371 120.512 222.371C119.795 222.371 119.155 222.371 118.502 222.473L116.954 219.209C114.581 219.583 112.283 220.331 110.144 221.424L110.81 224.995C109.654 225.664 108.573 226.454 107.584 227.35L104.384 225.609C102.69 227.309 101.269 229.261 100.173 231.395L102.81 233.891C102.249 235.122 101.82 236.41 101.53 237.731L97.9456 238.205C97.5531 240.574 97.5531 242.991 97.9456 245.36L101.53 245.833C101.82 247.155 102.249 248.442 102.81 249.673L100.173 252.169C101.267 254.306 102.688 256.258 104.384 257.955L107.584 256.214C108.573 257.111 109.654 257.9 110.81 258.569L110.144 262.141C112.283 263.234 114.581 263.981 116.954 264.355L118.502 261.091C119.155 261.155 119.782 261.193 120.512 261.193C121.242 261.193 121.792 261.193 122.509 261.091L124.058 264.355C126.43 263.981 128.729 263.234 130.867 262.141L130.202 258.569C131.357 257.9 132.438 257.111 133.427 256.214L136.627 257.955C138.321 256.256 139.742 254.304 140.838 252.169L138.24 249.648C138.799 248.416 139.228 247.129 139.52 245.808L143.04 245.373ZM120.512 249.763C118.934 249.766 117.39 249.3 116.077 248.424C114.764 247.549 113.739 246.304 113.134 244.846C112.529 243.389 112.37 241.784 112.677 240.236C112.985 238.688 113.744 237.266 114.86 236.15C115.976 235.034 117.399 234.274 118.947 233.967C120.495 233.66 122.099 233.819 123.557 234.424C125.014 235.029 126.26 236.053 127.135 237.366C128.01 238.68 128.476 240.223 128.474 241.801C128.47 243.912 127.63 245.935 126.138 247.427C124.646 248.92 122.623 249.76 120.512 249.763Z" fill="#EBEBEB"/>
<path d="M154.586 271.126C154.677 270.534 154.725 269.935 154.726 269.334C154.726 268.734 154.678 268.135 154.586 267.542L152.781 267.312C152.644 266.656 152.438 266.017 152.166 265.405L153.446 264.125C152.899 263.052 152.186 262.071 151.334 261.219L149.734 262.09C149.237 261.644 148.697 261.25 148.122 260.912L148.454 259.133C147.386 258.583 146.236 258.207 145.05 258.019L144.282 259.658C143.949 259.658 143.616 259.658 143.283 259.658C142.95 259.658 142.605 259.658 142.272 259.658L141.504 258.019C140.317 258.207 139.168 258.583 138.099 259.133L138.432 260.912C137.857 261.25 137.316 261.644 136.819 262.09L135.219 261.219C134.368 262.071 133.655 263.052 133.107 264.125L134.387 265.405C134.116 266.017 133.91 266.656 133.773 267.312L131.981 267.542C131.881 268.135 131.834 268.734 131.84 269.334C131.835 269.935 131.883 270.534 131.981 271.126L133.773 271.357C133.91 272.008 134.116 272.643 134.387 273.251L133.107 274.531C133.656 275.6 134.369 276.576 135.219 277.424L136.819 276.554C137.31 277.007 137.851 277.402 138.432 277.731L138.099 279.51C139.168 280.06 140.317 280.436 141.504 280.624L142.272 278.986C142.94 279.054 143.613 279.054 144.282 278.986L145.05 280.624C146.236 280.436 147.386 280.06 148.454 279.51L148.122 277.731C148.703 277.402 149.244 277.007 149.734 276.554L151.334 277.424C152.185 276.576 152.898 275.6 153.446 274.531L152.166 273.251C152.438 272.643 152.644 272.008 152.781 271.357L154.586 271.126ZM143.322 273.315C142.534 273.315 141.765 273.082 141.11 272.644C140.455 272.207 139.945 271.585 139.644 270.858C139.343 270.13 139.264 269.33 139.417 268.558C139.571 267.786 139.95 267.076 140.507 266.52C141.063 265.963 141.773 265.584 142.545 265.43C143.317 265.277 144.118 265.355 144.845 265.657C145.572 265.958 146.194 266.468 146.632 267.123C147.069 267.778 147.302 268.547 147.302 269.334C147.299 270.383 146.884 271.387 146.146 272.132C145.409 272.877 144.408 273.302 143.36 273.315H143.322Z" fill="#E0E0E0"/>
<path d="M550.067 245.296C550.55 244.94 551.008 244.551 551.437 244.131C551.86 243.706 552.249 243.248 552.602 242.762L551.501 241.328C551.865 240.77 552.165 240.173 552.397 239.549H554.214C554.587 238.408 554.777 237.216 554.778 236.016L553.024 235.504C552.998 234.837 552.895 234.176 552.717 233.533L554.214 232.509C553.852 231.364 553.303 230.287 552.589 229.322L550.886 229.923C550.678 229.664 550.456 229.416 550.221 229.181C549.978 228.938 549.734 228.72 549.478 228.502L550.08 226.8C549.107 226.098 548.032 225.55 546.893 225.174L545.869 226.672C545.219 226.506 544.554 226.404 543.885 226.365L543.373 224.624C542.173 224.62 540.98 224.811 539.84 225.187V226.992C539.217 227.233 538.621 227.538 538.061 227.901L536.614 226.8C535.634 227.516 534.771 228.38 534.054 229.36L535.155 230.794C534.794 231.36 534.49 231.96 534.246 232.586H532.442C532.071 233.727 531.881 234.919 531.878 236.118L533.619 236.63C533.657 237.296 533.76 237.956 533.926 238.602L532.429 239.638C532.804 240.778 533.353 241.853 534.054 242.826L535.757 242.211C535.974 242.467 536.192 242.723 536.435 242.966C536.678 243.21 536.922 243.427 537.178 243.632L536.576 245.334C537.541 246.049 538.618 246.598 539.763 246.96L540.787 245.462C541.43 245.641 542.092 245.744 542.758 245.77L543.27 247.523C544.474 247.522 545.671 247.332 546.816 246.96V245.142C547.438 244.906 548.035 244.606 548.595 244.246L550.067 245.296ZM540.557 238.896C540 238.339 539.622 237.63 539.468 236.858C539.315 236.086 539.394 235.285 539.695 234.558C539.997 233.831 540.507 233.21 541.162 232.772C541.816 232.335 542.586 232.102 543.373 232.102C544.16 232.102 544.93 232.335 545.584 232.772C546.239 233.21 546.749 233.831 547.05 234.558C547.352 235.285 547.431 236.086 547.277 236.858C547.124 237.63 546.745 238.339 546.189 238.896C545.819 239.267 545.38 239.561 544.896 239.761C544.412 239.961 543.894 240.063 543.37 240.062C542.847 240.061 542.329 239.956 541.846 239.754C541.363 239.552 540.925 239.256 540.557 238.883V238.896Z" fill="#F0F0F0"/>
<path d="M320 472.278C457.066 472.278 568.179 465.791 568.179 457.788C568.179 449.786 457.066 443.299 320 443.299C182.934 443.299 71.8208 449.786 71.8208 457.788C71.8208 465.791 182.934 472.278 320 472.278Z" fill="#F5F5F5"/>
<path d="M365.517 75.5428V55.6004L375.322 54.218V74.1604L365.517 75.5428Z" fill="#263238"/>
<path d="M332.915 86.6531L325.568 74.9539L331.827 70.4739L339.162 82.1603L332.915 86.6531Z" fill="#263238"/>
<path d="M401.664 73.3668L409.011 59.6196L415.258 62.346L407.923 76.106L401.664 73.3668Z" fill="#263238"/>
<g opacity="0.5">
<path d="M365.517 75.5428V55.6004L375.322 54.218V74.1604L365.517 75.5428Z" fill="white"/>
<path d="M332.915 86.6533L325.568 74.9541L331.827 70.4741L339.162 82.1605L332.915 86.6533Z" fill="white"/>
<path d="M401.664 73.3668L409.011 59.6196L415.258 62.346L407.923 76.106L401.664 73.3668Z" fill="white"/>
</g>
<path d="M376.717 57.4307L364.122 59.2099C363.664 59.2944 363.194 59.2752 362.745 59.1539C362.296 59.0326 361.88 58.8121 361.528 58.5088C361.175 58.2055 360.895 57.827 360.708 57.4012C360.522 56.9754 360.433 56.5131 360.448 56.0483C360.477 55.032 360.86 54.0577 361.531 53.2935C362.201 52.5294 363.118 52.0233 364.122 51.8627L376.717 50.0963C377.173 50.0121 377.642 50.0311 378.09 50.1517C378.538 50.2723 378.953 50.4916 379.305 50.7935C379.658 51.0954 379.938 51.4722 380.126 51.8964C380.313 52.3206 380.404 52.7814 380.39 53.2451C380.359 54.2607 379.975 55.2338 379.305 55.9974C378.635 56.7611 377.72 57.2678 376.717 57.4307Z" fill="#263238"/>
<path d="M333.862 70.154L324.531 76.8612C324.337 77.0234 324.112 77.144 323.869 77.2154C323.627 77.2868 323.372 77.3076 323.121 77.2763C322.87 77.2451 322.628 77.1626 322.411 77.0339C322.193 76.9053 322.004 76.7332 321.856 76.5284C321.61 76.059 321.547 75.5148 321.679 75.0015C321.812 74.4883 322.13 74.0425 322.573 73.7508L331.917 67.0564C332.109 66.8927 332.333 66.7707 332.575 66.6984C332.817 66.626 333.071 66.6048 333.321 66.6361C333.572 66.6674 333.813 66.7505 334.03 66.8802C334.246 67.0099 334.433 67.1832 334.579 67.3892C334.825 67.8567 334.887 68.3989 334.755 68.91C334.622 69.4211 334.304 69.8646 333.862 70.154Z" fill="#263238"/>
<path d="M416.307 63.9586L406.963 59.8882C406.74 59.7751 406.543 59.6168 406.385 59.4236C406.226 59.2304 406.11 59.0063 406.042 58.7657C405.975 58.525 405.958 58.273 405.993 58.0255C406.029 57.7781 406.115 57.5406 406.246 57.3282C406.48 56.8492 406.882 56.4732 407.376 56.2724C407.87 56.0716 408.42 56.0602 408.922 56.2402L418.253 60.3234C418.478 60.4336 418.678 60.5902 418.839 60.7831C419 60.976 419.118 61.2008 419.186 61.4426C419.253 61.6844 419.269 61.9378 419.232 62.1861C419.195 62.4345 419.105 62.6721 418.97 62.8834C418.736 63.3592 418.335 63.732 417.844 63.9305C417.353 64.1289 416.805 64.1389 416.307 63.9586Z" fill="#263238"/>
<path opacity="0.7" d="M376.717 57.4307L364.122 59.2099C363.664 59.2944 363.194 59.2752 362.745 59.1539C362.296 59.0326 361.88 58.8121 361.528 58.5088C361.175 58.2055 360.895 57.827 360.708 57.4012C360.522 56.9754 360.433 56.5131 360.448 56.0483C360.477 55.032 360.86 54.0577 361.531 53.2935C362.201 52.5294 363.118 52.0233 364.122 51.8627L376.717 50.0963C377.173 50.0121 377.642 50.0311 378.09 50.1517C378.538 50.2723 378.953 50.4916 379.305 50.7935C379.658 51.0954 379.938 51.4722 380.126 51.8964C380.313 52.3206 380.404 52.7814 380.39 53.2451C380.359 54.2607 379.975 55.2338 379.305 55.9974C378.635 56.7611 377.72 57.2678 376.717 57.4307Z" fill="white"/>
<path opacity="0.7" d="M333.862 70.154L324.531 76.8612C324.337 77.0234 324.112 77.144 323.869 77.2154C323.627 77.2868 323.372 77.3076 323.121 77.2763C322.87 77.2451 322.628 77.1626 322.411 77.0339C322.193 76.9053 322.004 76.7332 321.856 76.5284C321.61 76.059 321.547 75.5148 321.679 75.0015C321.812 74.4883 322.13 74.0425 322.573 73.7508L331.917 67.0564C332.109 66.8927 332.333 66.7707 332.575 66.6984C332.817 66.626 333.071 66.6048 333.321 66.6361C333.572 66.6674 333.813 66.7505 334.03 66.8802C334.246 67.0099 334.433 67.1832 334.579 67.3892C334.825 67.8567 334.887 68.3989 334.755 68.91C334.622 69.4211 334.304 69.8646 333.862 70.154Z" fill="white"/>
<path opacity="0.7" d="M416.307 63.9586L406.963 59.8882C406.74 59.7751 406.543 59.6168 406.385 59.4236C406.226 59.2304 406.11 59.0063 406.042 58.7657C405.975 58.525 405.958 58.273 405.993 58.0255C406.029 57.7781 406.115 57.5406 406.246 57.3282C406.48 56.8492 406.882 56.4732 407.376 56.2724C407.87 56.0716 408.42 56.0602 408.922 56.2402L418.253 60.3234C418.478 60.4336 418.678 60.5902 418.839 60.7831C419 60.976 419.118 61.2008 419.186 61.4426C419.253 61.6844 419.269 61.9378 419.232 62.1861C419.195 62.4345 419.105 62.6721 418.97 62.8834C418.736 63.3592 418.335 63.732 417.844 63.9305C417.353 64.1289 416.805 64.1389 416.307 63.9586Z" fill="white"/>
<path d="M370.419 200.394C336.333 205.181 308.698 181.437 308.698 147.351C308.698 113.264 336.333 81.7379 370.419 76.9507C404.506 72.1635 432.141 95.9075 432.141 129.994L440.563 128.816C440.563 90.0707 409.152 63.0883 370.419 68.5283C331.686 73.9683 300.275 109.796 300.275 148.528C300.275 187.261 331.674 214.256 370.419 208.816V200.394Z" fill="#D6B400"/>
<path d="M345.895 182.393L341.289 191.019L343.095 191.984L347.701 183.357L345.895 182.393Z" fill="#263238"/>
<path d="M397.718 85.3498L393.112 93.9763L394.919 94.941L399.525 86.3144L397.718 85.3498Z" fill="#263238"/>
<path d="M321.941 116.364L321.121 118.241L329.098 121.724L329.918 119.848L321.941 116.364Z" fill="#263238"/>
<path d="M343.863 94.4609L342.123 95.5464L346.715 102.912L348.456 101.827L343.863 94.4609Z" fill="#263238"/>
<path d="M328.933 167.223L320.946 172.954L322.14 174.618L330.127 168.887L328.933 167.223Z" fill="#263238"/>
<path d="M418.693 102.763L410.706 108.494L411.9 110.158L419.887 104.427L418.693 102.763Z" fill="#263238"/>
<path d="M325.991 142.849L313.709 144.575L314.279 148.631L326.561 146.905L325.991 142.849Z" fill="#263238"/>
<path d="M372.467 82.25H368.371V94.538H372.467V82.25Z" fill="#263238"/>
<path d="M372.467 182.807H368.371V195.095H372.467V182.807Z" fill="#263238"/>
<path d="M354.56 125.36C354.083 125.84 353.816 126.489 353.816 127.165C353.816 127.841 354.083 128.49 354.56 128.97L368.307 140.772L371.904 136.663L358.17 124.848C357.9 124.643 357.592 124.493 357.264 124.407C356.936 124.321 356.594 124.302 356.258 124.349C355.922 124.397 355.599 124.511 355.307 124.684C355.016 124.858 354.762 125.088 354.56 125.36Z" fill="#D6B400"/>
<path opacity="0.4" d="M354.56 125.36C354.083 125.84 353.816 126.489 353.816 127.165C353.816 127.841 354.083 128.49 354.56 128.97L368.307 140.772L371.904 136.663L358.17 124.848C357.9 124.643 357.592 124.493 357.264 124.407C356.936 124.321 356.594 124.302 356.258 124.349C355.922 124.397 355.599 124.511 355.307 124.684C355.016 124.858 354.762 125.088 354.56 125.36Z" fill="white"/>
<path d="M446.566 126.948L436.314 140.682L426.074 129.828L446.566 126.948Z" fill="#D6B400"/>
<path d="M393.805 111.613C393.535 111.407 393.227 111.257 392.899 111.171C392.571 111.086 392.229 111.066 391.893 111.114C391.557 111.161 391.234 111.275 390.943 111.449C390.651 111.622 390.397 111.852 390.195 112.125L371.584 133.347C370.587 133.221 369.574 133.346 368.638 133.711C367.702 134.075 366.871 134.667 366.221 135.434C364.122 137.84 364.122 141.258 366.221 143.114C368.32 144.97 371.75 144.394 373.901 142.038C374.564 141.3 375.029 140.405 375.253 139.438C375.477 138.471 375.452 137.464 375.181 136.509L393.792 115.274C394.037 115.036 394.231 114.752 394.365 114.438C394.498 114.124 394.567 113.787 394.569 113.446C394.57 113.105 394.503 112.767 394.372 112.452C394.24 112.137 394.048 111.852 393.805 111.613Z" fill="#D6B400"/>
<path d="M397.171 188.822L413.171 186.569L411.75 193.955L382.912 198.012L384.064 192.137L401.421 176.099C403.053 174.623 404.521 172.975 405.798 171.184C406.593 170.057 407.038 168.722 407.078 167.344C407.112 166.785 406.997 166.228 406.745 165.729C406.493 165.23 406.114 164.807 405.645 164.502C404.368 163.827 402.893 163.632 401.485 163.952C399.911 164.175 398.404 164.739 397.069 165.603C395.629 166.512 394.374 167.684 393.37 169.059L387.443 165.59C389.101 163.139 391.288 161.091 393.843 159.6C396.586 157.958 399.635 156.895 402.803 156.476C405.129 156.087 407.511 156.196 409.792 156.796C411.625 157.272 413.261 158.316 414.464 159.779C415.588 161.22 416.176 163.008 416.128 164.835C416.105 167.272 415.429 169.659 414.17 171.747C412.291 174.662 410.002 177.292 407.373 179.555L397.171 188.822Z" fill="#263238"/>
<path d="M451.302 180.4L445.056 181.283L443.469 189.5L434.88 190.704L436.48 182.473L416 185.366L417.139 179.273L439.552 151.958L449.19 150.614L428.288 176.457L438.31 175.049L439.718 167.715L447.936 166.563L446.515 173.884L452.774 173.014L451.302 180.4Z" fill="#263238"/>
<path d="M476.442 139.056L484.39 137.929L456.422 193.123L448.538 194.224L476.442 139.056Z" fill="#263238"/>
<path d="M512.73 141.68L511.59 147.555L491.238 182.78L481.446 184.163L500.979 150.512L488.627 152.252L487.347 158.653L479.514 159.753L482.176 145.993L512.73 141.68Z" fill="#263238"/>
<path d="M387.29 235.849C386.076 235.714 384.901 235.34 383.834 234.748L385.702 230.908C386.65 231.462 387.691 231.835 388.774 232.009C389.932 232.195 391.111 232.195 392.269 232.009C393.34 231.902 394.371 231.542 395.277 230.96C395.601 230.767 395.872 230.496 396.064 230.172C396.256 229.848 396.364 229.48 396.378 229.104C396.391 228.823 396.312 228.545 396.153 228.314C395.993 228.083 395.762 227.91 395.494 227.824C394.585 227.518 393.645 227.312 392.691 227.209C391.63 227.053 390.578 226.835 389.542 226.556C388.735 226.321 388.003 225.88 387.418 225.276C386.784 224.54 386.467 223.583 386.534 222.614C386.529 221.297 386.916 220.009 387.648 218.915C388.462 217.731 389.557 216.767 390.835 216.112C392.325 215.331 393.942 214.824 395.61 214.614C396.881 214.423 398.171 214.393 399.45 214.524C400.516 214.612 401.557 214.894 402.522 215.356L400.794 219.12C400.018 218.699 399.172 218.426 398.298 218.313C397.333 218.185 396.356 218.185 395.392 218.313C394.287 218.428 393.227 218.815 392.307 219.44C391.974 219.637 391.695 219.916 391.496 220.249C391.297 220.582 391.184 220.959 391.168 221.347C391.158 221.544 391.197 221.742 391.282 221.92C391.366 222.099 391.495 222.254 391.654 222.371C392.013 222.644 392.429 222.832 392.87 222.921C393.357 223.024 394.048 223.139 394.944 223.267C395.998 223.384 397.042 223.581 398.067 223.856C398.861 224.095 399.58 224.536 400.154 225.136C400.46 225.483 400.694 225.889 400.842 226.329C400.989 226.768 401.047 227.233 401.011 227.696C401.024 229.023 400.631 230.322 399.885 231.42C399.055 232.6 397.953 233.561 396.672 234.224C395.161 235.053 393.514 235.604 391.808 235.849C390.31 236.067 388.788 236.067 387.29 235.849Z" fill="#263238"/>
<path d="M410.803 216.649L409.946 221.091L419.174 219.811L418.47 223.497L409.216 224.777L408.307 229.513L419.149 227.99L418.381 231.83L403.021 233.993L406.989 213.513L422.016 211.401L421.248 215.241L410.803 216.649Z" fill="#263238"/>
<path d="M440.384 219.785C439.34 221.286 437.894 222.462 436.211 223.177L439.667 228.822L434.816 229.513L431.693 224.393L427.776 224.944L426.662 230.665L422.042 231.318L426.01 210.838L434.112 209.699C436.055 209.268 438.089 209.559 439.834 210.518C440.52 210.982 441.072 211.62 441.432 212.366C441.791 213.113 441.947 213.941 441.882 214.768C441.915 216.555 441.392 218.309 440.384 219.785ZM435.968 219.068C436.39 218.655 436.722 218.158 436.942 217.609C437.163 217.06 437.267 216.472 437.248 215.881C437.286 215.494 437.217 215.104 437.047 214.754C436.878 214.404 436.615 214.108 436.288 213.897C435.434 213.48 434.465 213.363 433.536 213.564L429.901 214.076L428.506 221.18L432.422 220.63C433.74 220.499 434.982 219.952 435.968 219.068Z" fill="#263238"/>
<path d="M465.984 205.257L453.414 226.889L448.896 227.517L444.262 208.317L449.011 207.651L452.211 221.36L461.171 205.923L465.984 205.257Z" fill="#263238"/>
<path d="M467.622 205.027L472.256 204.374L468.288 224.854L463.654 225.507L467.622 205.027Z" fill="#263238"/>
<path d="M478.208 222.678C476.812 222.229 475.605 221.328 474.778 220.118C473.954 218.819 473.539 217.303 473.587 215.766C473.577 213.571 474.109 211.408 475.136 209.468C476.172 207.508 477.67 205.83 479.501 204.579C481.409 203.262 483.603 202.415 485.901 202.108C487.471 201.848 489.079 201.936 490.611 202.364C491.869 202.7 492.967 203.471 493.709 204.54L490.381 207.728C489.826 207.021 489.079 206.49 488.23 206.197C487.381 205.904 486.466 205.862 485.594 206.076C484.202 206.263 482.881 206.8 481.754 207.638C480.665 208.472 479.788 209.551 479.194 210.787C478.579 212.046 478.264 213.43 478.272 214.832C478.225 215.48 478.332 216.131 478.586 216.729C478.84 217.328 479.232 217.858 479.731 218.275C480.326 218.679 480.998 218.956 481.706 219.088C482.413 219.22 483.139 219.205 483.84 219.043C485.925 218.755 487.817 217.667 489.114 216.009L491.84 218.403C490.823 219.698 489.555 220.774 488.112 221.568C486.67 222.362 485.082 222.857 483.443 223.024C481.696 223.328 479.901 223.209 478.208 222.678Z" fill="#263238"/>
<path d="M501.581 203.952L500.723 208.38L509.952 207.1L509.248 210.774L499.994 212.054L499.085 216.777L509.926 215.254L509.158 219.094L493.798 221.257L497.779 200.777L512.768 198.729L512 202.569L501.581 203.952Z" fill="#263238"/>
<path d="M251.482 114.851C237.798 114.851 226.714 122.928 226.714 132.886C226.714 140.118 232.589 146.352 241.05 149.219C240.143 153.372 238.583 157.356 236.429 161.021C239.499 160.564 242.426 159.415 244.987 157.661C247.548 155.907 249.677 153.594 251.213 150.896H251.482C265.165 150.896 276.25 142.832 276.25 132.873C276.25 122.915 265.165 114.851 251.482 114.851Z" fill="#D6B400"/>
<path opacity="0.7" d="M251.482 114.851C237.798 114.851 226.714 122.928 226.714 132.886C226.714 140.118 232.589 146.352 241.05 149.219C240.143 153.372 238.583 157.356 236.429 161.021C239.499 160.564 242.426 159.415 244.987 157.661C247.548 155.907 249.677 153.594 251.213 150.896H251.482C265.165 150.896 276.25 142.832 276.25 132.873C276.25 122.915 265.165 114.851 251.482 114.851Z" fill="white"/>
<path d="M240.563 136.355C241.956 136.355 243.085 135.226 243.085 133.833C243.085 132.441 241.956 131.312 240.563 131.312C239.171 131.312 238.042 132.441 238.042 133.833C238.042 135.226 239.171 136.355 240.563 136.355Z" fill="#263238"/>
<path d="M253.837 133.833C253.837 134.34 253.687 134.835 253.405 135.256C253.124 135.677 252.724 136.005 252.256 136.199C251.789 136.392 251.274 136.443 250.777 136.344C250.281 136.245 249.825 136.002 249.467 135.644C249.109 135.286 248.865 134.829 248.766 134.333C248.667 133.836 248.718 133.322 248.912 132.854C249.105 132.386 249.434 131.986 249.854 131.705C250.275 131.424 250.77 131.273 251.277 131.273C251.956 131.273 252.607 131.543 253.087 132.023C253.567 132.503 253.837 133.154 253.837 133.833Z" fill="#263238"/>
<path d="M262.067 136.355C263.46 136.355 264.589 135.226 264.589 133.833C264.589 132.441 263.46 131.312 262.067 131.312C260.675 131.312 259.546 132.441 259.546 133.833C259.546 135.226 260.675 136.355 262.067 136.355Z" fill="#263238"/>
<path d="M476.16 390.794C476.16 390.794 476.326 373.706 470.106 375.959C463.885 378.211 476.16 390.794 476.16 390.794Z" fill="#FFD700"/>
<path d="M476.16 390.794C476.16 390.794 476.326 373.706 470.106 375.959C463.885 378.211 476.16 390.794 476.16 390.794Z" fill="black" fill-opacity="0.16"/>
<path d="M482.842 374.973C482.842 374.973 491.085 361.303 483.635 359.344C476.186 357.386 482.842 374.973 482.842 374.973Z" fill="#FFD700"/>
<path d="M482.842 374.973C482.842 374.973 491.085 361.303 483.635 359.344C476.186 357.386 482.842 374.973 482.842 374.973Z" fill="black" fill-opacity="0.16"/>
<path d="M515.418 365.322C515.418 365.322 532.531 364.439 528.666 358.026C524.8 351.613 515.418 365.322 515.418 365.322Z" fill="#FFD700"/>
<path d="M515.418 365.322C515.418 365.322 532.531 364.439 528.666 358.026C524.8 351.613 515.418 365.322 515.418 365.322Z" fill="black" fill-opacity="0.16"/>
<path d="M488.346 369.866C488.346 369.866 506.266 365.821 502.912 375.881C499.558 385.942 488.346 369.866 488.346 369.866Z" fill="#FFD700"/>
<path d="M488.346 369.866C488.346 369.866 506.266 365.821 502.912 375.881C499.558 385.942 488.346 369.866 488.346 369.866Z" fill="black" fill-opacity="0.16"/>
<path d="M475.328 406.243C475.328 406.243 468.48 390.73 464.64 396.246C460.8 401.763 475.328 406.243 475.328 406.243Z" fill="#FFD700"/>
<path d="M475.328 406.243C475.328 406.243 468.48 390.73 464.64 396.246C460.8 401.763 475.328 406.243 475.328 406.243Z" fill="black" fill-opacity="0.16"/>
<path d="M494.861 366.64C494.861 366.64 513.114 361.853 507.43 355.12C501.747 348.387 494.861 366.64 494.861 366.64Z" fill="#FFD700"/>
<path d="M494.861 366.64C494.861 366.64 513.114 361.853 507.43 355.12C501.747 348.387 494.861 366.64 494.861 366.64Z" fill="black" fill-opacity="0.16"/>
<path d="M508.659 364.759C508.659 364.759 523.098 371.85 516.442 376.483C509.786 381.117 508.659 364.759 508.659 364.759Z" fill="#FFD700"/>
<path d="M508.659 364.759C508.659 364.759 523.098 371.85 516.442 376.483C509.786 381.117 508.659 364.759 508.659 364.759Z" fill="black" fill-opacity="0.16"/>
<path d="M477.965 383.92C477.965 383.92 487.962 371.888 491.046 380.631C494.131 389.373 477.965 383.92 477.965 383.92Z" fill="#FFD700"/>
<path d="M477.965 383.92C477.965 383.92 487.962 371.888 491.046 380.631C494.131 389.373 477.965 383.92 477.965 383.92Z" fill="black" fill-opacity="0.16"/>
<g opacity="0.4">
<path d="M475.328 406.244C475.328 406.244 468.48 390.73 464.64 396.247C460.8 401.764 475.328 406.244 475.328 406.244Z" fill="white"/>
<path d="M494.861 366.64C494.861 366.64 513.114 361.853 507.43 355.12C501.747 348.387 494.861 366.64 494.861 366.64Z" fill="white"/>
<path d="M508.659 364.758C508.659 364.758 523.098 371.85 516.442 376.483C509.786 381.117 508.659 364.758 508.659 364.758Z" fill="white"/>
<path d="M477.965 383.921C477.965 383.921 487.962 371.889 491.046 380.631C494.131 389.373 477.965 383.921 477.965 383.921Z" fill="white"/>
</g>
<path d="M475.226 399.536C475.226 399.536 482.394 384.176 488.166 391.92C493.939 399.664 475.226 399.536 475.226 399.536Z" fill="#FFD700"/>
<path d="M475.226 399.536C475.226 399.536 482.394 384.176 488.166 391.92C493.939 399.664 475.226 399.536 475.226 399.536Z" fill="black" fill-opacity="0.16"/>
<path d="M475.341 415.69C473.168 405.681 473.481 395.291 476.25 385.431C482.112 366.231 500.096 361.712 518.272 364.618C519.718 364.848 519.078 367.024 517.645 366.794C507.994 365.258 497.165 365.104 488.755 370.941C482.739 375.152 479.334 381.847 477.696 388.861C475.774 397.51 475.726 406.47 477.555 415.139C477.85 416.573 475.648 417.136 475.341 415.703V415.69Z" fill="#FFD700"/>
<path d="M475.341 415.69C473.168 405.681 473.481 395.291 476.25 385.431C482.112 366.231 500.096 361.712 518.272 364.618C519.718 364.848 519.078 367.024 517.645 366.794C507.994 365.258 497.165 365.104 488.755 370.941C482.739 375.152 479.334 381.847 477.696 388.861C475.774 397.51 475.726 406.47 477.555 415.139C477.85 416.573 475.648 417.136 475.341 415.703V415.69Z" fill="black" fill-opacity="0.16"/>
<g opacity="0.3">
<path d="M475.341 415.69C473.168 405.681 473.481 395.291 476.25 385.431C482.112 366.231 500.096 361.712 518.272 364.618C519.718 364.848 519.078 367.024 517.645 366.794C507.994 365.258 497.165 365.104 488.755 370.941C482.739 375.152 479.334 381.847 477.696 388.861C475.774 397.51 475.726 406.47 477.555 415.139C477.85 416.573 475.648 417.136 475.341 415.703V415.69Z" fill="black"/>
</g>
<path d="M461.094 385.61C461.094 385.61 452.134 364.72 446.323 370.173C440.512 375.626 461.094 385.61 461.094 385.61Z" fill="#FFD700"/>
<path d="M461.094 385.61C461.094 385.61 452.134 364.72 446.323 370.173C440.512 375.626 461.094 385.61 461.094 385.61Z" fill="black" fill-opacity="0.16"/>
<path d="M460.326 363.389C460.326 363.389 462.451 343.152 452.928 344.023C443.405 344.893 460.326 363.389 460.326 363.389Z" fill="#FFD700"/>
<path d="M460.326 363.389C460.326 363.389 462.451 343.152 452.928 344.023C443.405 344.893 460.326 363.389 460.326 363.389Z" fill="black" fill-opacity="0.16"/>
<path d="M492.314 337.431C492.314 337.431 511.322 328.893 503.514 322.775C495.706 316.656 492.314 337.431 492.314 337.431Z" fill="#FFD700"/>
<path d="M492.314 337.431C492.314 337.431 511.322 328.893 503.514 322.775C495.706 316.656 492.314 337.431 492.314 337.431Z" fill="black" fill-opacity="0.16"/>
<path d="M463.885 354.775C463.885 354.775 482.176 341.975 483.674 355.747C485.171 369.52 463.885 354.775 463.885 354.775Z" fill="#FFD700"/>
<path d="M463.885 354.775C463.885 354.775 482.176 341.975 483.674 355.747C485.171 369.52 463.885 354.775 463.885 354.775Z" fill="black" fill-opacity="0.16"/>
<path d="M468.39 404.733C468.39 404.733 452.275 388.887 450.829 397.258C449.382 405.629 468.39 404.733 468.39 404.733Z" fill="#FFD700"/>
<path d="M468.39 404.733C468.39 404.733 452.275 388.887 450.829 397.258C449.382 405.629 468.39 404.733 468.39 404.733Z" fill="black" fill-opacity="0.16"/>
<path d="M469.581 348.003C469.581 348.003 487.834 334.205 477.773 328.483C467.712 322.762 469.581 348.003 469.581 348.003Z" fill="#FFD700"/>
<path d="M469.581 348.003C469.581 348.003 487.834 334.205 477.773 328.483C467.712 322.762 469.581 348.003 469.581 348.003Z" fill="black" fill-opacity="0.16"/>
<path d="M484.314 339.696C484.314 339.696 504.525 342.039 499.392 350.576C494.259 359.114 484.314 339.696 484.314 339.696Z" fill="#FFD700"/>
<path d="M484.314 339.696C484.314 339.696 504.525 342.039 499.392 350.576C494.259 359.114 484.314 339.696 484.314 339.696Z" fill="black" fill-opacity="0.16"/>
<path d="M459.52 376.406C459.52 376.406 464.512 357.399 472.678 366.704C480.845 376.01 459.52 376.406 459.52 376.406Z" fill="#FFD700"/>
<path d="M459.52 376.406C459.52 376.406 464.512 357.399 472.678 366.704C480.845 376.01 459.52 376.406 459.52 376.406Z" fill="black" fill-opacity="0.16"/>
<g opacity="0.4">
<path d="M468.39 404.733C468.39 404.733 452.275 388.887 450.829 397.258C449.382 405.629 468.39 404.733 468.39 404.733Z" fill="white"/>
<path d="M469.581 348.003C469.581 348.003 487.834 334.205 477.773 328.483C467.712 322.762 469.581 348.003 469.581 348.003Z" fill="white"/>
<path d="M484.314 339.696C484.314 339.696 504.525 342.039 499.392 350.576C494.259 359.114 484.314 339.696 484.314 339.696Z" fill="white"/>
<path d="M459.52 376.407C459.52 376.407 464.512 357.399 472.678 366.704C480.845 376.01 459.52 376.407 459.52 376.407Z" fill="white"/>
</g>
<path d="M464.717 396.618C464.717 396.618 464.717 374.768 475.392 381.693C486.067 388.618 464.717 396.618 464.717 396.618Z" fill="#FFD700"/>
<path d="M464.717 396.618C464.717 396.618 464.717 374.768 475.392 381.693C486.067 388.618 464.717 396.618 464.717 396.618Z" fill="black" fill-opacity="0.16"/>
<path d="M473.408 416.227C465.907 405.258 460.122 391.907 458.381 379.005C454.874 353.098 472.922 339.722 495.181 335.319C496.947 334.973 497.37 337.879 495.629 338.263C483.814 340.592 471.309 345.162 464.909 355.914C460.288 363.658 459.955 373.296 461.811 382.538C464.281 394.002 468.968 404.873 475.61 414.538C475.717 414.684 475.795 414.85 475.838 415.026C475.882 415.203 475.89 415.386 475.863 415.565C475.835 415.745 475.773 415.917 475.679 416.072C475.585 416.228 475.461 416.363 475.315 416.471C475.169 416.578 475.003 416.656 474.827 416.699C474.65 416.743 474.467 416.751 474.288 416.724C474.108 416.696 473.936 416.634 473.781 416.54C473.625 416.446 473.49 416.322 473.382 416.176L473.408 416.227Z" fill="#FFD700"/>
<path d="M473.408 416.227C465.907 405.258 460.122 391.907 458.381 379.005C454.874 353.098 472.922 339.722 495.181 335.319C496.947 334.973 497.37 337.879 495.629 338.263C483.814 340.592 471.309 345.162 464.909 355.914C460.288 363.658 459.955 373.296 461.811 382.538C464.281 394.002 468.968 404.873 475.61 414.538C475.717 414.684 475.795 414.85 475.838 415.026C475.882 415.203 475.89 415.386 475.863 415.565C475.835 415.745 475.773 415.917 475.679 416.072C475.585 416.228 475.461 416.363 475.315 416.471C475.169 416.578 475.003 416.656 474.827 416.699C474.65 416.743 474.467 416.751 474.288 416.724C474.108 416.696 473.936 416.634 473.781 416.54C473.625 416.446 473.49 416.322 473.382 416.176L473.408 416.227Z" fill="black" fill-opacity="0.16"/>
<g opacity="0.3">
<path d="M473.408 416.227C465.907 405.258 460.122 391.907 458.381 379.005C454.874 353.098 472.922 339.722 495.181 335.319C496.947 334.973 497.37 337.879 495.629 338.263C483.814 340.592 471.309 345.162 464.909 355.914C460.288 363.658 459.955 373.296 461.811 382.538C464.281 394.002 468.968 404.873 475.61 414.538C475.717 414.684 475.795 414.85 475.838 415.026C475.882 415.203 475.89 415.386 475.863 415.565C475.835 415.745 475.773 415.917 475.679 416.072C475.585 416.228 475.461 416.363 475.315 416.471C475.169 416.578 475.003 416.656 474.827 416.699C474.65 416.743 474.467 416.751 474.288 416.724C474.108 416.696 473.936 416.634 473.781 416.54C473.625 416.446 473.49 416.322 473.382 416.176L473.408 416.227Z" fill="black"/>
</g>
<path d="M458.97 391.101C458.97 391.101 463.219 376.931 467.776 380.387C472.333 383.843 458.97 391.101 458.97 391.101Z" fill="#FFD700"/>
<path d="M458.97 391.101C458.97 391.101 463.219 376.931 467.776 380.387C472.333 383.843 458.97 391.101 458.97 391.101Z" fill="black" fill-opacity="0.16"/>
<path d="M457.485 376.304C457.485 376.304 454.195 362.877 460.851 363.184C467.507 363.491 457.485 376.304 457.485 376.304Z" fill="#FFD700"/>
<path d="M457.485 376.304C457.485 376.304 454.195 362.877 460.851 363.184C467.507 363.491 457.485 376.304 457.485 376.304Z" fill="black" fill-opacity="0.16"/>
<path d="M433.05 360.01C433.05 360.01 419.136 354.89 423.987 350.576C428.838 346.262 433.05 360.01 433.05 360.01Z" fill="#FFD700"/>
<path d="M433.05 360.01C433.05 360.01 419.136 354.89 423.987 350.576C428.838 346.262 433.05 360.01 433.05 360.01Z" fill="black" fill-opacity="0.16"/>
<path d="M454.259 370.659C454.259 370.659 440.461 362.711 440.678 371.939C440.896 381.168 454.259 370.659 454.259 370.659Z" fill="#FFD700"/>
<path d="M454.259 370.659C454.259 370.659 440.461 362.711 440.678 371.939C440.896 381.168 454.259 370.659 454.259 370.659Z" fill="black" fill-opacity="0.16"/>
<path d="M455.68 404.067C455.68 404.067 465.382 393.047 467.136 398.576C468.89 404.106 455.68 404.067 455.68 404.067Z" fill="#FFD700"/>
<path d="M455.68 404.067C455.68 404.067 465.382 393.047 467.136 398.576C468.89 404.106 455.68 404.067 455.68 404.067Z" fill="black" fill-opacity="0.16"/>
<path d="M449.702 366.32C449.702 366.32 435.853 357.668 442.278 353.52C448.704 349.373 449.702 366.32 449.702 366.32Z" fill="#FFD700"/>
<path d="M449.702 366.32C449.702 366.32 435.853 357.668 442.278 353.52C448.704 349.373 449.702 366.32 449.702 366.32Z" fill="black" fill-opacity="0.16"/>
<path d="M438.771 361.29C438.771 361.29 425.024 363.44 429.338 368.97C433.651 374.499 438.771 361.29 438.771 361.29Z" fill="#FFD700"/>
<path d="M438.771 361.29C438.771 361.29 425.024 363.44 429.338 368.97C433.651 374.499 438.771 361.29 438.771 361.29Z" fill="black" fill-opacity="0.16"/>
<path d="M459.226 384.944C459.226 384.944 454.106 372.426 449.254 378.864C444.403 385.303 459.226 384.944 459.226 384.944Z" fill="#FFD700"/>
<path d="M459.226 384.944C459.226 384.944 454.106 372.426 449.254 378.864C444.403 385.303 459.226 384.944 459.226 384.944Z" fill="black" fill-opacity="0.16"/>
<g opacity="0.4">
<path d="M455.68 404.067C455.68 404.067 465.382 393.047 467.136 398.576C468.89 404.106 455.68 404.067 455.68 404.067Z" fill="white"/>
<path d="M449.702 366.32C449.702 366.32 435.853 357.667 442.278 353.52C448.704 349.373 449.702 366.32 449.702 366.32Z" fill="white"/>
<path d="M438.771 361.29C438.771 361.29 425.024 363.44 429.338 368.97C433.651 374.499 438.771 361.29 438.771 361.29Z" fill="white"/>
<path d="M459.226 384.944C459.226 384.944 454.106 372.426 449.254 378.864C444.403 385.303 459.226 384.944 459.226 384.944Z" fill="white"/>
</g>
<path d="M457.459 398.55C457.459 398.55 455.501 383.997 448.73 388.925C441.958 393.853 457.459 398.55 457.459 398.55Z" fill="#FFD700"/>
<path d="M457.459 398.55C457.459 398.55 455.501 383.997 448.73 388.925C441.958 393.853 457.459 398.55 457.459 398.55Z" fill="black" fill-opacity="0.16"/>
<path d="M453.222 411.863C457.592 404.155 460.001 395.491 460.237 386.634C460.326 369.277 446.643 360.906 430.874 358.627C429.594 358.448 429.594 360.419 430.874 360.599C439.245 361.802 448.269 364.439 453.67 371.453C457.51 376.471 458.662 382.883 458.214 389.091C457.578 396.736 455.313 404.155 451.571 410.851C450.957 411.952 452.634 412.989 453.261 411.875L453.222 411.863Z" fill="#FFD700"/>
<path d="M453.222 411.863C457.592 404.155 460.001 395.491 460.237 386.634C460.326 369.277 446.643 360.906 430.874 358.627C429.594 358.448 429.594 360.419 430.874 360.599C439.245 361.802 448.269 364.439 453.67 371.453C457.51 376.471 458.662 382.883 458.214 389.091C457.578 396.736 455.313 404.155 451.571 410.851C450.957 411.952 452.634 412.989 453.261 411.875L453.222 411.863Z" fill="black" fill-opacity="0.16"/>
<g opacity="0.3">
<path d="M453.222 411.863C457.592 404.155 460.001 395.491 460.237 386.634C460.326 369.277 446.643 360.906 430.874 358.627C429.594 358.448 429.594 360.419 430.874 360.599C439.245 361.802 448.269 364.439 453.67 371.453C457.51 376.471 458.662 382.883 458.214 389.091C457.578 396.736 455.313 404.155 451.571 410.851C450.957 411.952 452.634 412.989 453.261 411.875L453.222 411.863Z" fill="black"/>
</g>
<path d="M493.056 408.266L488.102 445.629C487.792 447.952 486.65 450.084 484.886 451.629C483.123 453.173 480.859 454.025 478.515 454.026H447.706C445.362 454.025 443.098 453.173 441.335 451.629C439.571 450.084 438.428 447.952 438.118 445.629L433.165 408.266H493.056Z" fill="#FFD700"/>
<path d="M493.056 408.266L488.102 445.629C487.792 447.952 486.65 450.084 484.886 451.629C483.123 453.173 480.859 454.025 478.515 454.026H447.706C445.362 454.025 443.098 453.173 441.335 451.629C439.571 450.084 438.428 447.952 438.118 445.629L433.165 408.266H493.056Z" fill="black" fill-opacity="0.16"/>
<path opacity="0.3" d="M493.056 408.266L488.102 445.629C487.792 447.952 486.65 450.084 484.886 451.629C483.123 453.173 480.859 454.025 478.515 454.026H447.706C445.362 454.025 443.098 453.173 441.335 451.629C439.571 450.084 438.428 447.952 438.118 445.629L433.165 408.266H493.056Z" fill="white"/>
<path d="M214.874 336.496H206.464V391.766H214.874V336.496Z" fill="#263238"/>
<path opacity="0.5" d="M214.874 336.496H206.464V391.766H214.874V336.496Z" fill="white"/>
<path d="M236.224 433.162L216.525 429.603V390.051C216.526 389.76 216.47 389.471 216.36 389.202C216.249 388.933 216.086 388.688 215.88 388.482C215.674 388.276 215.429 388.113 215.16 388.002C214.89 387.891 214.602 387.835 214.31 387.837H207.027C206.735 387.835 206.446 387.891 206.176 388.002C205.906 388.112 205.66 388.275 205.453 388.481C205.246 388.687 205.082 388.931 204.97 389.201C204.858 389.47 204.8 389.759 204.8 390.051V429.603L185.114 433.162C183.731 433.408 182.48 434.133 181.579 435.21C180.678 436.286 180.185 437.646 180.186 439.05L210.662 436.298L241.152 439.05C241.15 437.647 240.656 436.288 239.755 435.212C238.855 434.136 237.605 433.411 236.224 433.162Z" fill="#263238"/>
<path d="M186.586 445.027C186.586 446.293 186.21 447.53 185.507 448.583C184.804 449.635 183.804 450.455 182.635 450.94C181.465 451.424 180.178 451.551 178.937 451.304C177.696 451.057 176.555 450.447 175.66 449.552C174.765 448.657 174.155 447.517 173.909 446.276C173.662 445.034 173.788 443.747 174.273 442.578C174.757 441.408 175.577 440.409 176.63 439.706C177.682 439.002 178.92 438.627 180.186 438.627C181.883 438.627 183.511 439.301 184.711 440.501C185.911 441.702 186.586 443.33 186.586 445.027Z" fill="#FFD700"/>
<path d="M186.586 445.027C186.586 446.293 186.21 447.53 185.507 448.583C184.804 449.635 183.804 450.455 182.635 450.94C181.465 451.424 180.178 451.551 178.937 451.304C177.696 451.057 176.555 450.447 175.66 449.552C174.765 448.657 174.155 447.517 173.909 446.276C173.662 445.034 173.788 443.747 174.273 442.578C174.757 441.408 175.577 440.409 176.63 439.706C177.682 439.002 178.92 438.627 180.186 438.627C181.883 438.627 183.511 439.301 184.711 440.501C185.911 441.702 186.586 443.33 186.586 445.027Z" fill="black" fill-opacity="0.16"/>
<path d="M247.552 445.027C247.552 446.293 247.177 447.53 246.473 448.583C245.77 449.635 244.771 450.455 243.601 450.94C242.432 451.424 241.145 451.551 239.903 451.304C238.662 451.057 237.522 450.447 236.626 449.552C235.731 448.657 235.122 447.517 234.875 446.276C234.628 445.034 234.755 443.747 235.239 442.578C235.724 441.408 236.544 440.409 237.596 439.706C238.649 439.002 239.886 438.627 241.152 438.627C241.992 438.627 242.825 438.792 243.601 439.114C244.378 439.436 245.083 439.907 245.677 440.501C246.272 441.096 246.743 441.801 247.065 442.578C247.386 443.354 247.552 444.186 247.552 445.027Z" fill="#FFD700"/>
<path d="M247.552 445.027C247.552 446.293 247.177 447.53 246.473 448.583C245.77 449.635 244.771 450.455 243.601 450.94C242.432 451.424 241.145 451.551 239.903 451.304C238.662 451.057 237.522 450.447 236.626 449.552C235.731 448.657 235.122 447.517 234.875 446.276C234.628 445.034 234.755 443.747 235.239 442.578C235.724 441.408 236.544 440.409 237.596 439.706C238.649 439.002 239.886 438.627 241.152 438.627C241.992 438.627 242.825 438.792 243.601 439.114C244.378 439.436 245.083 439.907 245.677 440.501C246.272 441.096 246.743 441.801 247.065 442.578C247.386 443.354 247.552 444.186 247.552 445.027Z" fill="black" fill-opacity="0.16"/>
<path d="M215.667 445.027C215.667 448.56 214.208 451.427 210.662 451.427C207.117 451.427 205.67 448.56 205.67 445.027C205.67 441.494 207.13 438.627 210.662 438.627C214.195 438.627 215.667 441.494 215.667 445.027Z" fill="#FFD700"/>
<path d="M215.667 445.027C215.667 448.56 214.208 451.427 210.662 451.427C207.117 451.427 205.67 448.56 205.67 445.027C205.67 441.494 207.13 438.627 210.662 438.627C214.195 438.627 215.667 441.494 215.667 445.027Z" fill="black" fill-opacity="0.16"/>
<g opacity="0.5">
<path d="M216.717 429.629V436.848L219.098 437.066V430.064L216.717 429.629Z" fill="black"/>
<path d="M202.291 430.051V437.053L204.672 436.848V429.629L202.291 430.051Z" fill="black"/>
</g>
<path d="M155.763 286.154C155.233 286.154 154.709 286.271 154.228 286.497C153.748 286.723 153.323 287.051 152.984 287.459C152.644 287.866 152.399 288.344 152.264 288.857C152.129 289.37 152.109 289.907 152.205 290.429L160.013 332.502C160.366 334.414 161.377 336.142 162.871 337.386C164.365 338.63 166.248 339.311 168.192 339.312H291.238C291.964 339.312 292.682 339.169 293.352 338.891C294.023 338.613 294.631 338.205 295.144 337.692C295.656 337.178 296.062 336.568 296.339 335.898C296.615 335.227 296.757 334.508 296.755 333.782C296.755 331.701 295.928 329.706 294.457 328.234C292.986 326.763 290.99 325.936 288.909 325.936H218.701C216.84 325.937 215.032 325.314 213.566 324.168C212.1 323.022 211.06 321.419 210.611 319.613L204.326 294.243C203.755 291.935 202.427 289.885 200.555 288.419C198.683 286.953 196.375 286.155 193.997 286.154H155.763Z" fill="#263238"/>
<path d="M172.378 319.613L166.093 294.243C165.521 291.935 164.194 289.885 162.322 288.419C160.45 286.953 158.141 286.155 155.763 286.154C155.233 286.154 154.709 286.271 154.228 286.497C153.748 286.723 153.323 287.051 152.984 287.459C152.644 287.866 152.399 288.344 152.264 288.857C152.129 289.37 152.109 289.907 152.205 290.429L160.013 332.502C160.366 334.414 161.377 336.142 162.871 337.386C164.365 338.63 166.248 339.311 168.192 339.312H252.992C253.719 339.314 254.438 339.172 255.11 338.895C255.782 338.617 256.392 338.21 256.906 337.696C257.42 337.182 257.827 336.572 258.104 335.9C258.381 335.229 258.523 334.509 258.522 333.782C258.518 331.702 257.69 329.709 256.22 328.238C254.749 326.767 252.755 325.939 250.675 325.936H180.48C178.616 325.942 176.805 325.322 175.336 324.175C173.867 323.028 172.825 321.422 172.378 319.613Z" fill="#263238"/>
<path opacity="0.2" d="M172.378 319.613L166.093 294.243C165.521 291.935 164.194 289.885 162.322 288.419C160.45 286.953 158.141 286.155 155.763 286.154C155.233 286.154 154.709 286.271 154.228 286.497C153.748 286.723 153.323 287.051 152.984 287.459C152.644 287.866 152.399 288.344 152.264 288.857C152.129 289.37 152.109 289.907 152.205 290.429L160.013 332.502C160.366 334.414 161.377 336.142 162.871 337.386C164.365 338.63 166.248 339.311 168.192 339.312H252.992C253.719 339.314 254.438 339.172 255.11 338.895C255.782 338.617 256.392 338.21 256.906 337.696C257.42 337.182 257.827 336.572 258.104 335.9C258.381 335.229 258.523 334.509 258.522 333.782C258.518 331.702 257.69 329.709 256.22 328.238C254.749 326.767 252.755 325.939 250.675 325.936H180.48C178.616 325.942 176.805 325.322 175.336 324.175C173.867 323.028 172.825 321.422 172.378 319.613Z" fill="white"/>
<path d="M224.358 165.77C224.358 165.77 238.362 169.943 231.821 180.298L225.741 171.44L224.358 165.77Z" fill="#263238"/>
<path d="M274.803 219.146L280.909 210.186L286.95 212.106L288.051 214.538L280.525 225.302L274.803 219.146Z" fill="#DBB178"/>
<path d="M283.853 221.488C277.734 231.088 268.083 245.091 264.397 244.259C253.568 241.84 238.682 231.587 231.04 220.323C229.886 218.624 229.413 216.553 229.714 214.522C230.016 212.49 231.069 210.645 232.666 209.354V209.277C233.499 208.597 234.458 208.087 235.488 207.778C236.519 207.469 237.6 207.367 238.67 207.476C239.74 207.585 240.778 207.905 241.724 208.416C242.671 208.927 243.507 209.62 244.186 210.454C244.326 210.621 244.454 210.8 244.582 210.979C251.354 220.694 259.942 229.91 261.35 230.691C263.002 231.638 267.29 227.581 276.365 216.112L283.853 221.488Z" fill="#D6B400"/>
<path opacity="0.6" d="M283.853 221.488C277.734 231.088 268.083 245.091 264.397 244.259C253.568 241.84 238.682 231.587 231.04 220.323C229.886 218.624 229.413 216.553 229.714 214.522C230.016 212.49 231.069 210.645 232.666 209.354V209.277C233.499 208.597 234.458 208.087 235.488 207.778C236.519 207.469 237.6 207.367 238.67 207.476C239.74 207.585 240.778 207.905 241.724 208.416C242.671 208.927 243.507 209.62 244.186 210.454C244.326 210.621 244.454 210.8 244.582 210.979C251.354 220.694 259.942 229.91 261.35 230.691C263.002 231.638 267.29 227.581 276.365 216.112L283.853 221.488Z" fill="white"/>
<path d="M283.994 213.744L296.09 216.112L290.458 205.974C290.458 205.974 283.136 205.974 280.909 210.186L283.994 213.744Z" fill="#DBB178"/>
<path opacity="0.2" d="M248.96 237.258C240.192 231.267 239.027 217.213 239.027 217.213L234.061 214.947L231.68 221.27C236.437 227.59 242.29 233.005 248.96 237.258Z" fill="black"/>
<path d="M304.64 211.773L299.469 203.53L290.47 205.975L296.09 216.112L304.64 211.773Z" fill="#DBB178"/>
<path d="M237.466 268.029L194.56 270.845C194.56 270.845 194.253 259.325 192.755 248.714C192.291 245.021 191.555 241.367 190.554 237.783C189.44 234.122 187.994 230.013 186.33 225.239C186.112 224.65 185.894 224.061 185.651 223.447C185.088 221.962 184.512 220.413 183.859 218.8V218.723C183.279 217.147 183.342 215.407 184.034 213.876C184.726 212.346 185.992 211.15 187.558 210.544C187.853 210.429 188.157 210.339 188.467 210.275C191.194 209.699 193.946 209.175 196.736 208.739L199.142 208.381C205.567 207.424 212.042 206.842 218.534 206.64C221.901 206.64 225.498 206.743 228.57 206.883L231.13 207.011C234.381 207.203 236.634 207.408 236.634 207.408C236.634 207.408 238.042 207.69 238.874 215.229C238.892 215.658 238.935 216.085 239.002 216.509C239.104 218.071 239.194 220.042 239.232 222.41C239.36 232.087 238.784 248.33 237.466 268.029Z" fill="#FFD600"/>
<path opacity="0.6" d="M237.466 268.029L194.56 270.845C194.56 270.845 194.253 259.325 192.755 248.714C192.291 245.021 191.555 241.367 190.554 237.783C189.44 234.122 187.994 230.013 186.33 225.239C186.112 224.65 185.894 224.061 185.651 223.447C185.088 221.962 184.512 220.413 183.859 218.8V218.723C183.279 217.147 183.342 215.407 184.034 213.876C184.726 212.346 185.992 211.15 187.558 210.544C187.853 210.429 188.157 210.339 188.467 210.275C191.194 209.699 193.946 209.175 196.736 208.739L199.142 208.381C205.567 207.424 212.042 206.842 218.534 206.64C221.901 206.64 225.498 206.743 228.57 206.883L231.13 207.011C234.381 207.203 236.634 207.408 236.634 207.408C236.634 207.408 238.042 207.69 238.874 215.229C238.892 215.658 238.935 216.085 239.002 216.509C239.104 218.071 239.194 220.042 239.232 222.41C239.36 232.087 238.784 248.33 237.466 268.029Z" fill="white"/>
<path d="M200.64 208.176L211.341 222.435L219.021 215.856L229.005 220.669L223.603 206.704C221.939 206.704 220.224 206.704 218.573 206.704C212.573 206.866 206.586 207.358 200.64 208.176Z" fill="#FFD700"/>
<path d="M200.64 208.176L211.341 222.435L219.021 215.856L229.005 220.669L223.603 206.704C221.939 206.704 220.224 206.704 218.573 206.704C212.573 206.866 206.586 207.358 200.64 208.176Z" fill="black" fill-opacity="0.16"/>
<path opacity="0.9" d="M200.64 208.176L211.341 222.435L219.021 215.856L229.005 220.669L223.603 206.704C221.939 206.704 220.224 206.704 218.573 206.704C212.573 206.866 206.586 207.358 200.64 208.176Z" fill="white"/>
<path d="M295.347 440.099H286.221L290.381 371.21H307.456L295.347 440.099Z" fill="#DBB178"/>
<path d="M285.21 439.229C285.107 438.359 296 437.539 296 437.539C296 437.539 303.578 443.376 310.234 443.939C316.89 444.503 313.83 448.918 306.624 449.917L288.794 452.477C283.674 453.232 286.259 448.33 285.21 439.229Z" fill="#263238"/>
<path d="M301.466 439.6C300.076 439.518 298.704 439.256 297.382 438.819C297.329 438.807 297.281 438.78 297.242 438.742C297.216 438.655 297.216 438.561 297.242 438.474C297.242 438.358 297.843 435.658 299.238 434.864C299.447 434.737 299.681 434.656 299.924 434.627C300.167 434.599 300.414 434.623 300.646 434.698C301.325 434.902 301.504 435.286 301.517 435.555C301.517 436.106 300.992 436.72 300.237 437.283C300.965 437.078 301.736 437.078 302.464 437.283C302.622 437.343 302.767 437.434 302.89 437.551C303.013 437.667 303.112 437.807 303.181 437.962C303.288 438.163 303.334 438.391 303.313 438.619C303.293 438.846 303.207 439.062 303.066 439.242C302.6 439.566 302.025 439.695 301.466 439.6ZM298.534 438.448C300.173 438.87 302.093 439.152 302.515 438.691C302.618 438.602 302.592 438.41 302.515 438.179C302.484 438.104 302.437 438.037 302.377 437.981C302.318 437.926 302.247 437.884 302.17 437.859C300.927 437.712 299.667 437.916 298.534 438.448ZM300.019 435.248C299.829 435.248 299.643 435.301 299.482 435.402C298.752 436.036 298.238 436.882 298.01 437.821C299.418 437.014 300.826 436.003 300.826 435.568C300.826 435.491 300.672 435.389 300.429 435.299C300.295 435.262 300.157 435.245 300.019 435.248Z" fill="#FFD700"/>
<path d="M301.466 439.6C300.076 439.518 298.704 439.256 297.382 438.819C297.329 438.807 297.281 438.78 297.242 438.742C297.216 438.655 297.216 438.561 297.242 438.474C297.242 438.358 297.843 435.658 299.238 434.864C299.447 434.737 299.681 434.656 299.924 434.627C300.167 434.599 300.414 434.623 300.646 434.698C301.325 434.902 301.504 435.286 301.517 435.555C301.517 436.106 300.992 436.72 300.237 437.283C300.965 437.078 301.736 437.078 302.464 437.283C302.622 437.343 302.767 437.434 302.89 437.551C303.013 437.667 303.112 437.807 303.181 437.962C303.288 438.163 303.334 438.391 303.313 438.619C303.293 438.846 303.207 439.062 303.066 439.242C302.6 439.566 302.025 439.695 301.466 439.6ZM298.534 438.448C300.173 438.87 302.093 439.152 302.515 438.691C302.618 438.602 302.592 438.41 302.515 438.179C302.484 438.104 302.437 438.037 302.377 437.981C302.318 437.926 302.247 437.884 302.17 437.859C300.927 437.712 299.667 437.916 298.534 438.448ZM300.019 435.248C299.829 435.248 299.643 435.301 299.482 435.402C298.752 436.036 298.238 436.882 298.01 437.821C299.418 437.014 300.826 436.003 300.826 435.568C300.826 435.491 300.672 435.389 300.429 435.299C300.295 435.262 300.157 435.245 300.019 435.248Z" fill="black" fill-opacity="0.16"/>
<path opacity="0.2" d="M289.651 383.255L305.254 383.728L307.456 371.21H290.381L289.651 383.255Z" fill="black"/>
<path d="M251.546 441.264L242.803 440.099L256.64 363.824L273.894 368.752L251.546 441.264Z" fill="#DBB178"/>
<path d="M241.664 438.883C241.664 437.987 252.57 438.883 252.57 438.883C252.57 438.883 259.187 445.783 265.677 447.331C272.166 448.88 268.493 452.81 261.222 452.707L243.2 452.49C237.99 452.439 241.318 448.074 241.664 438.883Z" fill="#263238"/>
<path d="M258.304 441.725C256.71 441.528 255.163 441.051 253.734 440.317L253.645 440.24C253.639 440.226 253.636 440.211 253.636 440.195C253.636 440.18 253.639 440.165 253.645 440.15C253.626 440.111 253.616 440.067 253.616 440.022C253.616 439.978 253.626 439.934 253.645 439.894C253.645 439.792 254.643 437.232 256.205 436.63C256.426 436.529 256.666 436.477 256.909 436.477C257.152 436.477 257.392 436.529 257.613 436.63C258.253 436.95 258.368 437.334 258.342 437.603C258.342 438.154 257.651 438.678 256.845 439.114C257.597 439.022 258.359 439.142 259.046 439.459C259.194 439.538 259.323 439.647 259.424 439.779C259.526 439.912 259.598 440.065 259.635 440.227C259.717 440.436 259.733 440.664 259.68 440.882C259.628 441.099 259.509 441.295 259.341 441.443C259.04 441.659 258.672 441.759 258.304 441.725ZM254.886 440.086C256.448 440.752 258.304 441.366 258.726 440.931C258.829 440.854 258.854 440.675 258.726 440.419C258.707 440.343 258.672 440.272 258.623 440.21C258.575 440.149 258.514 440.098 258.445 440.061C257.277 439.758 256.05 439.767 254.886 440.086ZM256.678 437.142C256.538 437.148 256.399 437.178 256.269 437.232C255.462 437.743 254.832 438.489 254.464 439.37C256.026 438.794 257.498 437.962 257.523 437.552C257.523 437.475 257.395 437.347 257.178 437.245C257.041 437.177 256.894 437.133 256.742 437.117L256.678 437.142Z" fill="#FFD700"/>
<path d="M258.304 441.725C256.71 441.528 255.163 441.051 253.734 440.317L253.645 440.24C253.639 440.226 253.636 440.211 253.636 440.195C253.636 440.18 253.639 440.165 253.645 440.15C253.626 440.111 253.616 440.067 253.616 440.022C253.616 439.978 253.626 439.934 253.645 439.894C253.645 439.792 254.643 437.232 256.205 436.63C256.426 436.529 256.666 436.477 256.909 436.477C257.152 436.477 257.392 436.529 257.613 436.63C258.253 436.95 258.368 437.334 258.342 437.603C258.342 438.154 257.651 438.678 256.845 439.114C257.597 439.022 258.359 439.142 259.046 439.459C259.194 439.538 259.323 439.647 259.424 439.779C259.526 439.912 259.598 440.065 259.635 440.227C259.717 440.436 259.733 440.664 259.68 440.882C259.628 441.099 259.509 441.295 259.341 441.443C259.04 441.659 258.672 441.759 258.304 441.725ZM254.886 440.086C256.448 440.752 258.304 441.366 258.726 440.931C258.829 440.854 258.854 440.675 258.726 440.419C258.707 440.343 258.672 440.272 258.623 440.21C258.575 440.149 258.514 440.098 258.445 440.061C257.277 439.758 256.05 439.767 254.886 440.086ZM256.678 437.142C256.538 437.148 256.399 437.178 256.269 437.232C255.462 437.743 254.832 438.489 254.464 439.37C256.026 438.794 257.498 437.962 257.523 437.552C257.523 437.475 257.395 437.347 257.178 437.245C257.041 437.177 256.894 437.133 256.742 437.117L256.678 437.142Z" fill="black" fill-opacity="0.16"/>
<path opacity="0.2" d="M273.894 368.752L256.64 363.824L253.914 378.864L269.888 381.744L273.894 368.752Z" fill="black"/>
<path d="M285.862 377.123L307.814 378.275C313.434 352.394 319.04 323.862 317.926 317.603C315.814 305.61 299.52 293.398 236.262 283.043L206.822 327.28C206.822 327.28 249.882 325.27 289.126 325.27C289.114 325.296 286.925 349.923 285.862 377.123Z" fill="#D6B400"/>
<path opacity="0.1" d="M285.862 377.123L307.814 378.275C313.434 352.394 319.04 323.862 317.926 317.603C315.814 305.61 299.52 293.398 236.262 283.043L206.822 327.28C206.822 327.28 249.882 325.27 289.126 325.27C289.114 325.296 286.925 349.923 285.862 377.123Z" fill="black"/>
<path d="M284.39 373.68L285.043 379.427L309.094 380.247L310.272 374.96L284.39 373.68Z" fill="#D6B400"/>
<path d="M222.246 206.678H218.534C213.21 206.845 207.898 207.28 202.611 207.958C204.915 210.71 212.096 214.998 216.909 214.998C223.629 214.947 222.131 209.955 222.246 206.678Z" fill="#DBB178"/>
<path d="M251.738 372.669L274.176 376.317C283.29 350.806 292.403 323.658 292.25 317.539C291.942 305.354 289.267 299.03 245.197 289.2C245.197 289.2 242.854 285.782 237.517 268.08L194.56 270.896C194.56 270.896 174.963 306.992 190.131 322.403C193.485 325.834 200.077 327.37 206.771 327.306C206.771 327.306 222.259 327.382 260.531 325.59C260.544 325.59 256 347.427 251.738 372.669Z" fill="#D6B400"/>
<path d="M250.842 368.752L276.838 373.142L274.368 378.608L250.726 374.73L250.842 368.752Z" fill="#D6B400"/>
<path opacity="0.1" d="M284.39 373.68L285.043 379.427L309.094 380.247L310.272 374.96L284.39 373.68Z" fill="black"/>
<path d="M218.995 202.979C218.501 206.14 218.632 209.367 219.379 212.477L207.616 210.749C207.363 210.712 207.121 210.616 206.911 210.47C206.7 210.324 206.526 210.132 206.402 209.907C206.278 209.683 206.208 209.434 206.197 209.178C206.185 208.922 206.233 208.667 206.336 208.432C207.949 204.771 208.589 197.399 208.986 194.007C209.203 191.959 209.293 190.09 209.306 188.784C209.318 187.479 209.306 186.992 209.306 186.992L214.566 189.399L223.155 193.328C221.175 196.256 219.764 199.53 218.995 202.979Z" fill="#DBB178"/>
<path opacity="0.2" d="M223.181 193.328C221.182 196.253 219.749 199.526 218.957 202.979C214.665 201.277 211.12 198.1 208.96 194.019C209.19 191.971 209.28 190.102 209.293 188.797C211.162 188.989 212.902 189.181 214.566 189.411L223.181 193.328Z" fill="black"/>
<path d="M223.808 184.931C223.462 188.861 225.472 192.035 228.288 192.035C231.104 192.035 233.677 188.861 234.022 184.931C234.368 181.002 232.358 177.814 229.542 177.814C226.726 177.814 224.154 181.002 223.808 184.931Z" fill="#FFD700"/>
<path d="M223.808 184.931C223.462 188.861 225.472 192.035 228.288 192.035C231.104 192.035 233.677 188.861 234.022 184.931C234.368 181.002 232.358 177.814 229.542 177.814C226.726 177.814 224.154 181.002 223.808 184.931Z" fill="black" fill-opacity="0.16"/>
<path opacity="0.5" d="M223.309 184.931C222.963 188.861 224.973 192.035 227.789 192.035C230.605 192.035 233.165 188.861 233.51 184.931C233.856 181.002 231.846 177.814 229.03 177.814C226.214 177.814 223.642 181.002 223.309 184.931Z" fill="black"/>
<path d="M203.61 178.019C205.709 187.645 206.438 193.379 212.122 197.77C213.954 199.225 216.15 200.15 218.471 200.444C220.792 200.739 223.149 200.392 225.287 199.44C227.424 198.489 229.26 196.97 230.595 195.048C231.93 193.127 232.712 190.876 232.858 188.541C233.613 179.581 230.054 165.334 219.917 162.608C217.738 161.957 215.426 161.892 213.214 162.418C211.001 162.944 208.967 164.044 207.314 165.606C205.661 167.168 204.449 169.137 203.799 171.316C203.148 173.495 203.083 175.807 203.61 178.019Z" fill="#DBB178"/>
<path d="M201.382 188.067C202.941 189.949 205.103 191.233 207.501 191.702C210.534 192.214 211.226 189.411 209.677 186.685C208.294 184.24 205.03 181.027 202.317 181.744C199.603 182.461 199.424 185.699 201.382 188.067Z" fill="#DBB178"/>
<path d="M218.803 178.967C218.931 179.76 219.443 180.349 219.968 180.247C220.493 180.144 220.8 179.491 220.685 178.711C220.57 177.93 220.045 177.328 219.52 177.431C218.995 177.533 218.688 178.173 218.803 178.967Z" fill="#263238"/>
<path d="M227.84 177.904C227.955 178.698 228.48 179.287 228.992 179.184C229.504 179.082 229.837 178.429 229.722 177.635C229.606 176.842 229.069 176.266 228.557 176.355C228.045 176.445 227.648 177.111 227.84 177.904Z" fill="#263238"/>
<path d="M224.986 178.634C226.31 180.94 227.933 183.062 229.811 184.944C229.321 185.395 228.738 185.732 228.103 185.931C227.468 186.13 226.797 186.187 226.138 186.096L224.986 178.634Z" fill="#C0854B"/>
<path d="M215.59 176.419C215.515 176.436 215.436 176.436 215.36 176.419C215.305 176.39 215.257 176.35 215.218 176.301C215.179 176.253 215.151 176.197 215.134 176.138C215.117 176.078 215.113 176.015 215.121 175.954C215.129 175.892 215.149 175.833 215.181 175.779C215.525 175.126 216.025 174.568 216.637 174.155C217.249 173.742 217.954 173.486 218.688 173.411C218.749 173.406 218.81 173.413 218.868 173.433C218.926 173.452 218.98 173.483 219.025 173.524C219.071 173.565 219.108 173.614 219.133 173.67C219.159 173.725 219.173 173.785 219.174 173.847C219.18 173.908 219.172 173.97 219.153 174.029C219.134 174.088 219.103 174.142 219.063 174.188C219.022 174.235 218.972 174.273 218.917 174.3C218.861 174.327 218.801 174.343 218.739 174.346C218.162 174.411 217.609 174.618 217.131 174.948C216.653 175.279 216.265 175.723 216 176.24C215.952 176.301 215.889 176.35 215.818 176.381C215.746 176.412 215.668 176.426 215.59 176.419Z" fill="#263238"/>
<path d="M231.155 174.41C231.079 174.412 231.003 174.395 230.936 174.359C230.868 174.323 230.812 174.27 230.771 174.205C230.446 173.699 230.01 173.274 229.495 172.964C228.98 172.653 228.401 172.464 227.802 172.413C227.691 172.395 227.59 172.337 227.518 172.252C227.445 172.166 227.406 172.058 227.406 171.946C227.406 171.834 227.445 171.725 227.518 171.639C227.59 171.554 227.691 171.497 227.802 171.479C228.553 171.528 229.283 171.753 229.932 172.136C230.581 172.518 231.131 173.047 231.539 173.68C231.609 173.782 231.636 173.908 231.615 174.03C231.593 174.152 231.525 174.261 231.424 174.333C231.343 174.382 231.25 174.408 231.155 174.41Z" fill="#263238"/>
<path d="M205.491 190.678C205.491 190.678 211.61 184.419 208.614 169.059C208.614 169.059 213.542 173.245 224.986 170.147C224.986 170.147 218.214 170.813 215.117 167.587C215.117 167.587 221.427 170.518 231.629 167.587C231.629 167.587 229.811 157.258 218.829 156.733C218.829 156.733 222.374 153.75 225.792 154.326C225.792 154.326 222.298 151.318 213.427 157.168L209.92 158.602C209.92 158.602 200.038 155.043 194.56 163.414C190.195 170.032 192.384 190.87 205.491 190.678Z" fill="#263238"/>
<path d="M227.93 187.85C227.93 187.85 224.832 187.069 216.102 186.877C217.075 189.527 218.931 191.715 223.411 191.767C223.969 191.829 224.534 191.775 225.071 191.608C225.607 191.441 226.103 191.165 226.527 190.797C226.952 190.429 227.295 189.977 227.537 189.47C227.778 188.963 227.912 188.411 227.93 187.85Z" fill="#263238"/>
<path d="M221.44 189.654C223.161 189.591 224.858 190.07 226.291 191.024C225.454 191.56 224.467 191.815 223.475 191.754C221.762 191.825 220.07 191.345 218.65 190.384C219.48 189.853 220.456 189.598 221.44 189.654Z" fill="#A02724"/>
<path d="M227.533 187.773C227.442 188.095 227.263 188.385 227.016 188.611C226.77 188.837 226.466 188.99 226.138 189.053C223.559 188.993 220.99 188.719 218.458 188.234C218.053 188.198 217.663 188.062 217.324 187.839C216.984 187.615 216.705 187.311 216.512 186.954C220.201 186.942 223.886 187.216 227.533 187.773Z" fill="white"/>
<path d="M200.742 181.335V171.005C200.742 167.948 201.728 164.972 203.554 162.52C205.381 160.069 207.95 158.272 210.88 157.399L214.336 156.784C211.332 157.68 208.698 159.522 206.825 162.036C204.952 164.55 203.941 167.601 203.942 170.736V181.335H200.742Z" fill="#FFD700"/>
<path d="M200.742 181.335V171.005C200.742 167.948 201.728 164.972 203.554 162.52C205.381 160.069 207.95 158.272 210.88 157.399L214.336 156.784C211.332 157.68 208.698 159.522 206.825 162.036C204.952 164.55 203.941 167.601 203.942 170.736V181.335H200.742Z" fill="black" fill-opacity="0.16"/>
<path d="M208.768 186.339C209.114 190.269 207.104 193.443 204.288 193.443C201.472 193.443 198.899 190.269 198.566 186.339C198.234 182.41 200.23 179.222 203.046 179.222C205.862 179.222 208.422 182.41 208.768 186.339Z" fill="#FFD700"/>
<path d="M208.768 186.339C209.114 190.269 207.104 193.443 204.288 193.443C201.472 193.443 198.899 190.269 198.566 186.339C198.234 182.41 200.23 179.222 203.046 179.222C205.862 179.222 208.422 182.41 208.768 186.339Z" fill="black" fill-opacity="0.16"/>
<path opacity="0.5" d="M208.768 186.339C209.114 190.269 207.104 193.443 204.288 193.443C201.472 193.443 198.899 190.269 198.566 186.339C198.234 182.41 200.23 179.222 203.046 179.222C205.862 179.222 208.422 182.41 208.768 186.339Z" fill="black"/>
<path d="M207.066 186.339C207.398 190.269 205.402 193.443 202.573 193.443C199.744 193.443 197.197 190.269 196.851 186.339C196.506 182.41 198.515 179.222 201.331 179.222C204.147 179.222 206.72 182.41 207.066 186.339Z" fill="#FFD700"/>
<path d="M207.066 186.339C207.398 190.269 205.402 193.443 202.573 193.443C199.744 193.443 197.197 190.269 196.851 186.339C196.506 182.41 198.515 179.222 201.331 179.222C204.147 179.222 206.72 182.41 207.066 186.339Z" fill="black" fill-opacity="0.16"/>
<path opacity="0.3" d="M203.52 187.376L203.29 185.303H203.686C203.174 183.267 201.741 181.744 200.166 181.744C198.592 181.744 197.44 183.267 197.274 185.303H197.542L197.773 187.376H197.466C197.978 189.411 199.411 190.922 200.973 190.922C202.534 190.922 203.712 189.411 203.866 187.376H203.52Z" fill="white"/>
<path d="M185.126 187.21L190.72 176.202L195.238 186.877C195.238 186.877 190.707 192.637 186.035 191.805L185.126 187.21Z" fill="#DBB178"/>
<path d="M199.411 172.144L202.701 181.296L195.226 186.877L190.72 176.202L199.411 172.144Z" fill="#DBB178"/>
<path d="M186.598 199.062L191.974 190.013L191.411 186.326L186.675 184.65L179.93 195.146L186.598 199.062Z" fill="#DBB178"/>
<path d="M190.477 193.431L180.659 215.037C180.659 215.037 185.434 210.749 188.07 210.135C192.269 209.149 204.941 212.976 192.102 226.915C192.102 226.915 166.682 242.8 161.498 236.643C157.466 231.856 174.592 202.762 182.438 190.013L190.477 193.431Z" fill="#D6B400"/>
<path opacity="0.6" d="M190.477 193.431L180.659 215.037C180.659 215.037 185.434 210.749 188.07 210.135C192.269 209.149 204.941 212.976 192.102 226.915C192.102 226.915 166.682 242.8 161.498 236.643C157.466 231.856 174.592 202.762 182.438 190.013L190.477 193.431Z" fill="white"/>
<path opacity="0.2" d="M180.659 215.037L177.92 223.472L185.958 211.107C184.084 212.264 182.311 213.579 180.659 215.037Z" fill="black"/>
<path d="M217.434 195.875C216.359 195.903 215.284 195.834 214.221 195.671C211.481 194.686 208.831 193.469 206.298 192.035L206.81 191.114C209.27 192.494 211.838 193.671 214.49 194.634C217.216 194.859 219.956 194.859 222.682 194.634L222.758 195.696C222.554 195.696 219.866 195.875 217.434 195.875Z" fill="#FFD700"/>
<path d="M217.434 195.875C216.359 195.903 215.284 195.834 214.221 195.671C211.481 194.686 208.831 193.469 206.298 192.035L206.81 191.114C209.27 192.494 211.838 193.671 214.49 194.634C217.216 194.859 219.956 194.859 222.682 194.634L222.758 195.696C222.554 195.696 219.866 195.875 217.434 195.875Z" fill="black" fill-opacity="0.16"/>
<path d="M218.586 196.093L223.706 195.709C223.706 195.709 223.565 194.122 221.146 194.186C218.726 194.25 218.586 196.093 218.586 196.093Z" fill="#FFD700"/>
<path d="M218.586 196.093L223.706 195.709C223.706 195.709 223.565 194.122 221.146 194.186C218.726 194.25 218.586 196.093 218.586 196.093Z" fill="black" fill-opacity="0.16"/>
<g opacity="0.5">
<path d="M217.434 195.875C216.359 195.903 215.284 195.834 214.221 195.671C211.481 194.686 208.831 193.469 206.298 192.035L206.81 191.114C209.27 192.494 211.838 193.671 214.49 194.634C217.216 194.859 219.956 194.859 222.682 194.634L222.758 195.696C222.554 195.696 219.866 195.875 217.434 195.875Z" fill="black"/>
<path d="M218.586 196.093L223.706 195.709C223.706 195.709 223.565 194.122 221.146 194.186C218.726 194.25 218.586 196.093 218.586 196.093Z" fill="black"/>
</g>
<path d="M422.477 452.861C422.208 452.871 421.939 452.828 421.687 452.735C421.435 452.641 421.203 452.499 421.006 452.316C420.808 452.133 420.649 451.912 420.537 451.668C420.425 451.423 420.362 451.159 420.352 450.89L407.552 302.691C407.53 301.413 407.03 300.189 406.151 299.261C405.273 298.332 404.078 297.766 402.803 297.674H342.336C341.061 297.766 339.867 298.332 338.988 299.261C338.109 300.189 337.609 301.413 337.587 302.691L324.787 450.89C324.786 451.164 324.729 451.435 324.621 451.687C324.512 451.94 324.354 452.167 324.156 452.357C323.958 452.547 323.723 452.695 323.467 452.793C323.21 452.89 322.937 452.935 322.662 452.925C322.109 452.813 321.62 452.493 321.296 452.031C320.972 451.569 320.838 451 320.922 450.442L333.722 302.23C334.17 297.046 337.869 293.142 342.336 293.142H402.803C407.27 293.142 410.97 297.046 411.418 302.23L424.218 450.442C424.301 451 424.167 451.569 423.843 452.031C423.519 452.493 423.03 452.813 422.477 452.925V452.861Z" fill="#FFD700"/>
<path d="M422.477 452.861C422.208 452.871 421.939 452.828 421.687 452.735C421.435 452.641 421.203 452.499 421.006 452.316C420.808 452.133 420.649 451.912 420.537 451.668C420.425 451.423 420.362 451.159 420.352 450.89L407.552 302.691C407.53 301.413 407.03 300.189 406.151 299.261C405.273 298.332 404.078 297.766 402.803 297.674H342.336C341.061 297.766 339.867 298.332 338.988 299.261C338.109 300.189 337.609 301.413 337.587 302.691L324.787 450.89C324.786 451.164 324.729 451.435 324.621 451.687C324.512 451.94 324.354 452.167 324.156 452.357C323.958 452.547 323.723 452.695 323.467 452.793C323.21 452.89 322.937 452.935 322.662 452.925C322.109 452.813 321.62 452.493 321.296 452.031C320.972 451.569 320.838 451 320.922 450.442L333.722 302.23C334.17 297.046 337.869 293.142 342.336 293.142H402.803C407.27 293.142 410.97 297.046 411.418 302.23L424.218 450.442C424.301 451 424.167 451.569 423.843 452.031C423.519 452.493 423.03 452.813 422.477 452.925V452.861Z" fill="black" fill-opacity="0.16"/>
<g opacity="0.4">
<path d="M422.477 452.861C422.208 452.871 421.939 452.828 421.687 452.735C421.435 452.641 421.203 452.499 421.006 452.316C420.808 452.133 420.649 451.912 420.537 451.668C420.425 451.423 420.362 451.159 420.352 450.89L407.552 302.691C407.53 301.413 407.03 300.189 406.151 299.261C405.273 298.332 404.078 297.766 402.803 297.674H342.336C341.061 297.766 339.867 298.332 338.988 299.261C338.109 300.189 337.609 301.413 337.587 302.691L324.787 450.89C324.786 451.164 324.729 451.435 324.621 451.687C324.512 451.94 324.354 452.167 324.156 452.357C323.958 452.547 323.723 452.695 323.467 452.793C323.21 452.89 322.937 452.935 322.662 452.925C322.109 452.813 321.62 452.493 321.296 452.031C320.972 451.569 320.838 451 320.922 450.442L333.722 302.23C334.17 297.046 337.869 293.142 342.336 293.142H402.803C407.27 293.142 410.97 297.046 411.418 302.23L424.218 450.442C424.301 451 424.167 451.569 423.843 452.031C423.519 452.493 423.03 452.813 422.477 452.925V452.861Z" fill="black"/>
</g>
<path d="M421.632 286.729H257.267C255.832 286.729 254.669 287.893 254.669 289.328V297.75C254.669 299.185 255.832 300.349 257.267 300.349H421.632C423.067 300.349 424.23 299.185 424.23 297.75V289.328C424.23 287.893 423.067 286.729 421.632 286.729Z" fill="#263238"/>
<path opacity="0.2" d="M349.824 286.729H421.632C422.311 286.729 422.962 286.999 423.442 287.479C423.922 287.959 424.192 288.611 424.192 289.289V297.712C424.192 298.391 423.922 299.042 423.442 299.522C422.962 300.002 422.311 300.272 421.632 300.272H349.824V286.729Z" fill="white"/>
<path d="M356.25 452.861C355.974 452.873 355.699 452.829 355.441 452.733C355.183 452.636 354.947 452.488 354.748 452.298C354.548 452.108 354.389 451.88 354.28 451.627C354.171 451.374 354.113 451.101 354.112 450.826L341.312 302.627C341.29 301.349 340.79 300.125 339.911 299.197C339.033 298.268 337.838 297.702 336.563 297.61H276.096C274.823 297.705 273.632 298.273 272.756 299.201C271.88 300.129 271.382 301.351 271.36 302.627L258.56 450.89C258.558 451.164 258.502 451.435 258.393 451.688C258.285 451.94 258.127 452.167 257.929 452.357C257.73 452.547 257.496 452.695 257.24 452.793C256.983 452.89 256.709 452.935 256.435 452.925C255.874 452.807 255.381 452.475 255.06 452C254.74 451.524 254.618 450.942 254.72 450.378L267.52 302.166C267.968 296.982 271.68 293.078 276.134 293.078H336.602C341.069 293.078 344.768 296.982 345.216 302.166L358.016 450.378C358.1 450.934 357.967 451.501 357.646 451.963C357.325 452.425 356.839 452.746 356.288 452.861H356.25Z" fill="#FFD700"/>
<path d="M356.25 452.861C355.974 452.873 355.699 452.829 355.441 452.733C355.183 452.636 354.947 452.488 354.748 452.298C354.548 452.108 354.389 451.88 354.28 451.627C354.171 451.374 354.113 451.101 354.112 450.826L341.312 302.627C341.29 301.349 340.79 300.125 339.911 299.197C339.033 298.268 337.838 297.702 336.563 297.61H276.096C274.823 297.705 273.632 298.273 272.756 299.201C271.88 300.129 271.382 301.351 271.36 302.627L258.56 450.89C258.558 451.164 258.502 451.435 258.393 451.688C258.285 451.94 258.127 452.167 257.929 452.357C257.73 452.547 257.496 452.695 257.24 452.793C256.983 452.89 256.709 452.935 256.435 452.925C255.874 452.807 255.381 452.475 255.06 452C254.74 451.524 254.618 450.942 254.72 450.378L267.52 302.166C267.968 296.982 271.68 293.078 276.134 293.078H336.602C341.069 293.078 344.768 296.982 345.216 302.166L358.016 450.378C358.1 450.934 357.967 451.501 357.646 451.963C357.325 452.425 356.839 452.746 356.288 452.861H356.25Z" fill="black" fill-opacity="0.16"/>
<g opacity="0.4">
<path d="M356.25 452.861C355.974 452.873 355.699 452.829 355.441 452.733C355.183 452.636 354.947 452.488 354.748 452.298C354.548 452.108 354.389 451.88 354.28 451.627C354.171 451.374 354.113 451.101 354.112 450.826L341.312 302.627C341.29 301.349 340.79 300.125 339.911 299.197C339.033 298.268 337.838 297.702 336.563 297.61H276.096C274.823 297.705 273.632 298.273 272.756 299.201C271.88 300.129 271.382 301.351 271.36 302.627L258.56 450.89C258.558 451.164 258.502 451.435 258.393 451.688C258.285 451.94 258.127 452.167 257.929 452.357C257.73 452.547 257.496 452.695 257.24 452.793C256.983 452.89 256.709 452.935 256.435 452.925C255.874 452.807 255.381 452.475 255.06 452C254.74 451.524 254.618 450.942 254.72 450.378L267.52 302.166C267.968 296.982 271.68 293.078 276.134 293.078H336.602C341.069 293.078 344.768 296.982 345.216 302.166L358.016 450.378C358.1 450.934 357.967 451.501 357.646 451.963C357.325 452.425 356.839 452.746 356.288 452.861H356.25Z" fill="black"/>
</g>
<path d="M308.902 280.022H356.339V284.489C356.339 285.083 356.103 285.653 355.683 286.073C355.263 286.493 354.693 286.729 354.099 286.729H311.142C310.548 286.729 309.979 286.493 309.558 286.073C309.138 285.653 308.902 285.083 308.902 284.489V280.048V280.022Z" fill="#263238"/>
<path opacity="0.2" d="M308.902 280.022H356.339V284.489C356.339 285.083 356.103 285.653 355.683 286.073C355.263 286.493 354.693 286.729 354.099 286.729H311.142C310.548 286.729 309.979 286.493 309.558 286.073C309.138 285.653 308.902 285.083 308.902 284.489V280.048V280.022Z" fill="white"/>
<path d="M275.354 280.022H322.79V284.489C322.79 285.083 322.554 285.653 322.134 286.073C321.714 286.493 321.144 286.729 320.55 286.729H277.594C277 286.729 276.43 286.493 276.01 286.073C275.59 285.653 275.354 285.083 275.354 284.489V280.048V280.022Z" fill="#263238"/>
<path opacity="0.6" d="M275.354 280.022H322.79V284.489C322.79 285.083 322.554 285.653 322.134 286.073C321.714 286.493 321.144 286.729 320.55 286.729H277.594C277 286.729 276.43 286.493 276.01 286.073C275.59 285.653 275.354 285.083 275.354 284.489V280.048V280.022Z" fill="white"/>
<path d="M317.299 282.57H312.896V284.157H317.299V282.57Z" fill="#263238"/>
<path d="M310.246 282.57H305.843V284.157H310.246V282.57Z" fill="#263238"/>
<path d="M359.68 286.729H361.946C362.565 286.716 363.161 286.486 363.629 286.079C364.097 285.672 364.407 285.114 364.506 284.502L372.186 237.283C372.246 236.908 372.225 236.525 372.125 236.159C372.025 235.792 371.848 235.452 371.606 235.16C371.363 234.867 371.061 234.63 370.72 234.465C370.378 234.299 370.005 234.208 369.626 234.198L332.8 234.134L322.842 286.614H325.107L359.68 286.729Z" fill="#263238"/>
<path opacity="0.6" d="M359.68 286.729H361.946C362.565 286.716 363.161 286.486 363.629 286.079C364.097 285.672 364.407 285.114 364.506 284.502L372.186 237.283C372.246 236.908 372.225 236.525 372.125 236.159C372.025 235.792 371.848 235.452 371.606 235.16C371.363 234.867 371.061 234.63 370.72 234.465C370.378 234.299 370.005 234.208 369.626 234.198L332.8 234.134L322.842 286.614H325.107L359.68 286.729Z" fill="white"/>
<path opacity="0.2" d="M323.418 283.312L322.778 286.665H325.043L359.603 286.729H361.869C362.489 286.716 363.084 286.486 363.552 286.079C364.02 285.672 364.33 285.114 364.429 284.502L364.608 283.389L323.418 283.312Z" fill="black"/>
<path d="M322.829 286.704H325.12C325.74 286.691 326.336 286.461 326.803 286.054C327.271 285.647 327.581 285.089 327.68 284.477L335.36 237.232C335.421 236.858 335.4 236.475 335.3 236.109C335.2 235.744 335.023 235.404 334.78 235.113C334.537 234.822 334.235 234.586 333.893 234.421C333.552 234.257 333.179 234.168 332.8 234.16L322.829 286.704Z" fill="#263238"/>
<path opacity="0.3" d="M322.829 286.704H325.12C325.74 286.691 326.336 286.461 326.803 286.054C327.271 285.647 327.581 285.089 327.68 284.477L335.36 237.232C335.421 236.858 335.4 236.475 335.3 236.109C335.2 235.744 335.023 235.404 334.78 235.113C334.537 234.822 334.235 234.586 333.893 234.421C333.552 234.257 333.179 234.168 332.8 234.16L322.829 286.704Z" fill="white"/>
</svg>
